<svg width="24" height="24" viewBox="0 0 24 24" fill="none" xmlns="http://www.w3.org/2000/svg">
<path d="M13.691 4.32458L11.3145 5.4143L17.9994 9.24862L16.162 5.24191C15.2283 5.53763 14.2052 5.15746 13.691 4.32458Z" fill="#7A7E2D"/>
<path d="M13.6959 3.74015C13.8286 3.67948 13.9859 3.73756 14.0468 3.87043C14.4181 4.67987 15.3787 5.03591 16.1885 4.66539C16.3215 4.60508 16.4787 4.66264 16.5394 4.79568L18.753 9.62303H20.132L16.6669 2.06663C16.5588 1.83088 16.3655 1.65149 16.1223 1.56118C15.8791 1.47088 15.6153 1.48088 15.3801 1.58893L9.41406 4.32472L10.75 5.09099L13.6959 3.74015Z" fill="#7A7E2D"/>
<path d="M6.26934 7.33488L4.95703 9.62293H14.0048L8.81347 6.64539C8.22582 7.42812 7.17236 7.71367 6.26934 7.33488Z" fill="#7A7E2D"/>
<path d="M5.93388 6.85627C6.0066 6.72943 6.16842 6.68548 6.29509 6.75838C7.06765 7.20059 8.05666 6.93313 8.50025 6.16074C8.53506 6.09973 8.59279 6.05527 8.66052 6.03683C8.72807 6.01874 8.80079 6.02787 8.86146 6.06285L15.0688 9.62323H17.5877L7.3794 3.76791C7.15451 3.63901 6.89291 3.60489 6.64251 3.67296C6.39229 3.74068 6.18342 3.90181 6.05451 4.12688L2.90186 9.62323H4.34684L5.93388 6.85627Z" fill="#7A7E2D"/>
<path d="M21.5291 10.1525H2.47057C1.93531 10.1525 1.5 10.5879 1.5 11.123V21.5295C1.5 22.0646 1.93531 22.5 2.47057 22.5H21.5291C22.0643 22.5 22.4997 22.0646 22.4997 21.5295V11.123C22.4997 10.5879 22.0643 10.1525 21.5291 10.1525ZM21.0879 18.706C21.0879 18.8521 20.9693 18.9707 20.8232 18.9707C19.8015 18.9707 18.9703 19.8018 18.9703 20.8236C18.9703 20.9697 18.8517 21.0883 18.7056 21.0883H5.29406C5.14792 21.0883 5.02935 20.9697 5.02935 20.8236C5.02935 19.8018 4.1982 18.9707 3.17644 18.9707C3.03031 18.9707 2.91174 18.8521 2.91174 18.706V13.9465C2.91174 13.8004 3.03031 13.6818 3.17644 13.6818C4.1982 13.6818 5.02935 12.8507 5.02935 11.8289C5.02935 11.6828 5.14792 11.5642 5.29406 11.5642H18.7056C18.8517 11.5642 18.9703 11.6828 18.9703 11.8289C18.9703 12.8507 19.8015 13.6818 20.8232 13.6818C20.9693 13.6818 21.0879 13.8004 21.0879 13.9465V18.706Z" fill="#7A7E2D"/>
<path d="M18.4558 12.0936H5.54437C5.42202 13.1962 4.54399 14.0742 3.44141 14.1966V18.4559C4.54398 18.5783 5.42202 19.4563 5.54437 20.5589H18.4558C18.5782 19.4563 19.4562 18.5783 20.5588 18.4559V14.1966C19.4562 14.0742 18.5782 13.1962 18.4558 12.0936ZM12.0001 19.4145C10.2973 19.4145 8.91191 18.0291 8.91191 16.3263C8.91191 14.6235 10.2973 13.2381 12.0001 13.2381C13.7029 13.2381 15.0883 14.6235 15.0883 16.3263C15.0883 18.0291 13.7029 19.4145 12.0001 19.4145Z" fill="#7A7E2D"/>
<path d="M11.9997 18.8849C13.4129 18.8849 14.5585 17.7393 14.5585 16.3261C14.5585 14.9129 13.4129 13.7673 11.9997 13.7673C10.5865 13.7673 9.44092 14.9129 9.44092 16.3261C9.44092 17.7393 10.5865 18.8849 11.9997 18.8849Z" fill="#7A7E2D"/>
</svg>
