<svg width="32" height="32" viewBox="0 0 32 32" fill="none" xmlns="http://www.w3.org/2000/svg">
<path d="M26.1401 6.34933L24.6916 7.315L22.2773 6.83216L20.8288 6.34933L18.8974 6.83216L17.4489 6.34933L18.4145 4.41795H20.3459L22.2387 3.47159C23.6984 4.19343 25.019 5.16779 26.1401 6.34933Z" fill="#FFC624"/>
<path d="M15.0348 4.41805L14.552 5.8666L13.1034 6.34943L11.6549 8.76365L9.24068 10.2122L5.8608 10.695V12.1436L6.82646 13.1093V15.0406L5.37802 14.0749L3.92947 13.1093L3.08932 10.584C4.53542 7.13789 7.29972 4.41367 10.7665 3.01779L12.1378 3.93522L15.0348 4.41805Z" fill="#FFC624"/>
<path d="M16.0004 17.9376L15.5176 20.3518L13.5862 22.2832V23.7317L11.6548 25.1802V27.5944L10.2063 27.1116L9.2406 24.6974V19.8689L6.82638 19.3861L5.86072 17.4547V16.0062L6.82638 15.0405L8.27494 13.5919L9.2406 15.5233H12.6205L14.069 17.9376H16.0004Z" fill="#FFC624"/>
<path d="M28.2162 9.16441C30.852 13.8668 30.5517 19.6653 27.4437 24.0698L26.14 22.7661V20.8347L25.1743 18.9033L24.2087 16.9719V15.0406L22.7601 14.0749L20.8287 14.5577L17.4488 13.1092L16.966 9.72928L18.4146 8.28073H21.3116L22.2773 9.72928L25.1743 10.2121L28.0714 9.24645L28.2162 9.16441Z" fill="#FFC624"/>
<path d="M18.8975 6.83274L20.8289 6.34991L22.2775 6.83274L24.6917 7.31558L26.1403 6.34991C26.949 7.19635 27.6467 8.14221 28.2165 9.16487L28.0716 9.24696L25.1746 10.2126L22.2775 9.72979L21.3119 8.28124H18.4148L16.9663 9.72979L17.4491 13.1097L20.829 14.5582L22.7604 14.0754L24.2089 15.0411V16.9724L25.1746 18.9038L26.1403 20.8352V22.7666L27.4439 24.0703C22.9849 30.3888 14.2478 31.8957 7.92979 27.4366C2.56394 23.6492 0.550954 16.6417 3.08927 10.5844L3.92941 13.1097L5.37797 14.0753L6.82652 15.041L5.8608 16.0067V17.4553L6.82646 19.3867L9.24068 19.8695V24.6979L10.2063 27.1121L11.6549 27.595V25.1808L13.5863 23.7322V22.2837L15.5177 20.3523L16.0005 17.9381H14.0691L12.6206 15.5238H9.24068L8.27502 13.5925L6.82652 15.041L6.82646 13.1096L5.8608 12.144V10.6955L9.24068 10.2126L11.6549 8.76407L13.1034 6.34986L14.552 5.86702L15.0348 4.41847L12.1378 3.93564L10.7665 3.01821C14.4796 1.52284 18.6552 1.68796 22.2389 3.47211L20.3461 4.41847H18.4147L17.4491 6.34986L18.8975 6.83274Z" fill="#3E4EB8"/>
</svg>
