<svg width="32" height="32" viewBox="0 0 32 32" fill="none" xmlns="http://www.w3.org/2000/svg">
<path d="M16 30C23.732 30 30 23.732 30 16C30 8.26801 23.732 2 16 2C8.26801 2 2 8.26801 2 16C2 23.732 8.26801 30 16 30Z" fill="#F0F0F0"/>
<path d="M4.89322 7.47638C3.79351 8.90717 2.96428 10.5563 2.48145 12.3478H9.76462L4.89322 7.47638Z" fill="#0052B4"/>
<path d="M29.5169 12.3477C29.0341 10.5563 28.2048 8.90717 27.1052 7.47638L22.2339 12.3477H29.5169Z" fill="#0052B4"/>
<path d="M2.48145 19.6525C2.96434 21.4439 3.79356 23.093 4.89322 24.5238L9.76445 19.6525H2.48145Z" fill="#0052B4"/>
<path d="M24.523 4.89413C23.0922 3.79442 21.4431 2.96519 19.6516 2.4823V9.76542L24.523 4.89413Z" fill="#0052B4"/>
<path d="M7.47595 27.106C8.90674 28.2057 10.5558 29.0349 12.3473 29.5178V22.2347L7.47595 27.106Z" fill="#0052B4"/>
<path d="M12.3472 2.4823C10.5558 2.96519 8.90669 3.79442 7.47595 4.89407L12.3472 9.76536V2.4823Z" fill="#0052B4"/>
<path d="M19.6516 29.5178C21.4431 29.0349 23.0922 28.2057 24.5229 27.106L19.6516 22.2347V29.5178Z" fill="#0052B4"/>
<path d="M22.2339 19.6525L27.1052 24.5238C28.2048 23.0931 29.0341 21.4439 29.5169 19.6525H22.2339Z" fill="#0052B4"/>
<path d="M29.8815 14.1739H17.8262H17.8261V2.11851C17.2283 2.04069 16.6189 2 16 2C15.381 2 14.7717 2.04069 14.1739 2.11851V14.1738V14.1739H2.11851C2.04069 14.7717 2 15.3811 2 16C2 16.619 2.04069 17.2283 2.11851 17.8261H14.1738H14.1739V29.8815C14.7717 29.9593 15.381 30 16 30C16.6189 30 17.2283 29.9594 17.8261 29.8815V17.8262V17.8261H29.8815C29.9593 17.2283 30 16.619 30 16C30 15.3811 29.9593 14.7717 29.8815 14.1739Z" fill="#D80027"/>
<path d="M19.6521 19.6522L25.8994 25.8994C26.1867 25.6122 26.4608 25.3119 26.7223 25.0006L21.3738 19.6521H19.6521V19.6522Z" fill="#D80027"/>
<path d="M12.348 19.6521H12.3479L6.10071 25.8993C6.38793 26.1867 6.68822 26.4607 6.9995 26.7223L12.348 21.3736V19.6521Z" fill="#D80027"/>
<path d="M12.3481 12.3477V12.3476L6.10077 6.10028C5.81344 6.3875 5.53935 6.68779 5.27783 6.99907L10.6264 12.3477L12.3481 12.3477Z" fill="#D80027"/>
<path d="M19.6521 12.3481L25.8994 6.10072C25.6122 5.81339 25.3119 5.53929 25.0006 5.27783L19.6521 10.6264V12.3481Z" fill="#D80027"/>
</svg>
