<svg width="32" height="32" viewBox="0 0 32 32" fill="none" xmlns="http://www.w3.org/2000/svg">
<path d="M8.20543 18.9207L7.23078 22.5592L3.66847 22.6346C2.60386 20.66 2 18.4008 2 16C2 13.6784 2.5646 11.4892 3.56538 9.56146H3.56615L6.73761 10.1429L8.12689 13.2953C7.83612 14.143 7.67763 15.053 7.67763 16C7.67774 17.0277 7.8639 18.0123 8.20543 18.9207Z" fill="#FBBB00"/>
<path d="M29.7554 13.3849C29.9161 14.2318 30 15.1064 30 16.0003C30 17.0026 29.8946 17.9803 29.6938 18.9234C29.0123 22.1326 27.2315 24.935 24.7646 26.918L24.7638 26.9173L20.7692 26.7135L20.2039 23.1842C21.8408 22.2242 23.12 20.7219 23.7939 18.9234H16.3077V13.3849H23.9031H29.7554Z" fill="#518EF8"/>
<path d="M24.7643 26.917L24.7651 26.9177C22.3659 28.8462 19.3181 30 16.0004 30C10.6689 30 6.03347 27.02 3.66882 22.6346L8.20578 18.9208C9.38808 22.0762 12.4319 24.3223 16.0004 24.3223C17.5343 24.3223 18.9712 23.9077 20.2043 23.1839L24.7643 26.917Z" fill="#28B446"/>
<path d="M24.9363 5.22308L20.4009 8.93617C19.1248 8.13849 17.6163 7.67769 16.0001 7.67769C12.3509 7.67769 9.25006 10.0269 8.127 13.2954L3.5662 9.56158H3.56543C5.89546 5.06925 10.5893 2 16.0001 2C19.3971 2 22.5117 3.21002 24.9363 5.22308Z" fill="#F14336"/>
</svg>
