<svg width="32" height="32" viewBox="0 0 32 32" fill="none" xmlns="http://www.w3.org/2000/svg">
<path d="M30 16.0832C30 8.39695 23.7685 2.16602 16.0815 2.16602C8.3945 2.16602 2.16296 8.39695 2.16296 16.0832C2.16296 23.7694 8.3945 30.0004 16.0815 30.0004C23.7685 30.0004 30 23.7694 30 16.0832Z" fill="url(#paint0_linear_3833_17975)"/>
<path opacity="0.1" d="M26.557 6.92678C24.5278 10.6515 21.658 14.4933 18.0722 18.0788C14.4863 21.6643 10.6441 24.5284 6.92455 26.5573C6.69136 26.3547 6.46487 26.1435 6.24511 25.9237C4.91673 24.6398 3.85727 23.1043 3.12852 21.4068C2.39978 19.7092 2.01632 17.8835 2.00051 16.0363C1.9847 14.189 2.33686 12.357 3.03645 10.6473C3.73603 8.93748 4.76905 7.38408 6.07527 6.07762C7.38148 4.77117 8.93475 3.73782 10.6445 3.03782C12.3543 2.33782 14.1863 1.98519 16.0337 2.00048C17.8812 2.01577 19.7071 2.39868 21.4051 3.12688C23.103 3.85509 24.6389 4.91401 25.9233 6.24191C26.1431 6.46165 26.3543 6.68994 26.557 6.92678Z" fill="white"/>
<path d="M19.3781 8.7583H12.7852C11.7166 8.7583 10.6918 9.18275 9.93618 9.93827C9.18059 10.6938 8.7561 11.7185 8.7561 12.787V19.3793C8.7561 20.4478 9.18059 21.4725 9.93618 22.228C10.6918 22.9835 11.7166 23.408 12.7852 23.408H19.3781C20.4467 23.408 21.4715 22.9835 22.2271 22.228C22.9827 21.4725 23.4072 20.4478 23.4072 19.3793V12.787C23.4072 11.7185 22.9827 10.6938 22.2271 9.93827C21.4715 9.18275 20.4467 8.7583 19.3781 8.7583ZM22.1252 18.8006C22.1252 19.6826 21.7748 20.5285 21.1511 21.1521C20.5274 21.7758 19.6815 22.1261 18.7994 22.1261H13.3639C12.4818 22.1261 11.6359 21.7758 11.0122 21.1521C10.3885 20.5285 10.0381 19.6826 10.0381 18.8006V13.3656C10.0381 12.4836 10.3885 11.6378 11.0122 11.0142C11.6359 10.3905 12.4818 10.0401 13.3639 10.0401H18.7994C19.6815 10.0401 20.5274 10.3905 21.1511 11.0142C21.7748 11.6378 22.1252 12.4836 22.1252 13.3656V18.8006Z" fill="white"/>
<path d="M18.7533 13.4387L18.7185 13.4039L18.6892 13.3746C17.9968 12.6846 17.0589 12.2974 16.0813 12.2979C15.5877 12.3012 15.0995 12.4018 14.6447 12.5938C14.1899 12.7859 13.7775 13.0657 13.4309 13.4172C13.0843 13.7687 12.8103 14.185 12.6247 14.6424C12.439 15.0998 12.3454 15.5893 12.349 16.083C12.3482 17.0847 12.7431 18.0463 13.4478 18.7584C13.793 19.1077 14.2043 19.3847 14.6577 19.5734C15.1111 19.762 15.5976 19.8585 16.0887 19.8571C16.8253 19.8416 17.5416 19.6122 18.15 19.1967C18.7585 18.7812 19.2329 18.1977 19.5154 17.5172C19.7979 16.8368 19.8763 16.0889 19.741 15.3646C19.6056 14.6404 19.2625 13.9712 18.7533 13.4387ZM16.0813 18.5661C15.5888 18.573 15.1052 18.4332 14.6923 18.1646C14.2794 17.896 13.9557 17.5106 13.7624 17.0576C13.5691 16.6045 13.5149 16.1042 13.6067 15.6202C13.6986 15.1363 13.9323 14.6906 14.2782 14.3398C14.6241 13.989 15.0665 13.7491 15.5491 13.6504C16.0318 13.5517 16.5329 13.5988 16.9887 13.7857C17.4445 13.9726 17.8344 14.2908 18.1088 14.6999C18.3833 15.1089 18.5299 15.5904 18.5299 16.083C18.5323 16.4068 18.4709 16.7279 18.3491 17.028C18.2273 17.3281 18.0476 17.6013 17.8202 17.8319C17.5928 18.0625 17.3222 18.246 17.0239 18.372C16.7255 18.498 16.4052 18.5639 16.0813 18.5661Z" fill="white"/>
<path d="M20.9221 12.1239C20.9231 12.2414 20.9008 12.3579 20.8567 12.4668C20.8126 12.5757 20.7474 12.6749 20.6649 12.7585C20.5824 12.8422 20.4842 12.9088 20.3759 12.9545C20.2676 13.0002 20.1514 13.0241 20.0339 13.0248C19.9173 13.0248 19.802 13.0016 19.6945 12.9566C19.587 12.9117 19.4894 12.8458 19.4075 12.7629C19.2835 12.6371 19.1991 12.4776 19.1648 12.3042C19.1306 12.1308 19.148 11.9512 19.2148 11.7876C19.2817 11.624 19.3952 11.4836 19.5411 11.3839C19.687 11.2842 19.859 11.2295 20.0357 11.2266C20.2425 11.2265 20.4428 11.2991 20.6016 11.4317L20.6199 11.45C20.6495 11.474 20.6765 11.501 20.7005 11.5305L20.7206 11.5525C20.8517 11.714 20.9229 11.9159 20.9221 12.1239Z" fill="white"/>
<defs>
<linearGradient id="paint0_linear_3833_17975" x1="6.23963" y1="6.24228" x2="25.9215" y2="25.926" gradientUnits="userSpaceOnUse">
<stop stop-color="#FAE100"/>
<stop offset="0.15" stop-color="#FCB720"/>
<stop offset="0.3" stop-color="#FF7950"/>
<stop offset="0.5" stop-color="#FF1C74"/>
<stop offset="1" stop-color="#6C1CD1"/>
</linearGradient>
</defs>
</svg>
