<svg width="32" height="32" viewBox="0 0 32 32" fill="none" xmlns="http://www.w3.org/2000/svg">
<path d="M16 2C8.26921 2 2 8.26921 2 16C2 23.7308 8.26921 30 16 30C23.7308 30 30 23.7308 30 16C30 8.26921 23.7308 2 16 2ZM23.0235 12.7118V14.6074C22.1296 14.6078 21.2612 14.4326 20.442 14.087C19.9154 13.8647 19.4246 13.5782 18.9758 13.2319L18.9893 19.0667C18.9836 20.3806 18.4638 21.615 17.523 22.5449C16.7574 23.3018 15.7873 23.7831 14.7357 23.9389C14.4887 23.9755 14.2372 23.9942 13.9829 23.9942C12.8573 23.9942 11.7886 23.6296 10.9144 22.9568C10.7499 22.8301 10.5926 22.6928 10.4428 22.5449C9.42323 21.5372 8.89746 20.1714 8.986 18.7346C9.05354 17.6409 9.49142 16.5978 10.2214 15.7803C11.1872 14.6985 12.5383 14.098 13.9829 14.098C14.2372 14.098 14.4887 14.1171 14.7357 14.1537V14.8546V16.8043C14.5015 16.727 14.2513 16.6845 13.9907 16.6845C12.6709 16.6845 11.6031 17.7613 11.6229 19.0821C11.6354 19.9272 12.097 20.6659 12.7779 21.0731C13.0978 21.2645 13.4659 21.3831 13.8588 21.4047C14.1665 21.4216 14.4621 21.3787 14.7357 21.2883C15.6787 20.9768 16.359 20.0911 16.359 19.0465L16.3621 15.1392V8.00578H18.9726C18.9752 8.26445 19.0014 8.51684 19.0502 8.7614C19.2472 9.7513 19.8052 10.6101 20.5818 11.1956C21.2589 11.7063 22.1021 12.0091 23.016 12.0091C23.0166 12.0091 23.0241 12.0091 23.0235 12.0085V12.7118H23.0235Z" fill="black"/>
</svg>
