<svg aria-hidden="true" xmlns="http://www.w3.org/2000/svg" xmlns:xlink="http://www.w3.org/1999/xlink"><symbol viewBox="0 0 32 32" id="battery-green" xmlns="http://www.w3.org/2000/svg">
<path fill-rule="evenodd" clip-rule="evenodd" d="M28.1333 18.6667V20.4445C28.1304 21.3866 27.7361 22.2893 27.0366 22.9555C26.3371 23.6217 25.3892 23.9972 24.4 24H5.73335C4.74321 24 3.79363 23.6254 3.09349 22.9586C2.39336 22.2918 2.00002 21.3874 2.00002 20.4445V11.5556C1.9983 11.0882 2.09368 10.6251 2.28069 10.193C2.46769 9.76086 2.74262 9.36824 3.08964 9.03775C3.43666 8.70726 3.8489 8.44542 4.30263 8.26732C4.75636 8.08922 5.2426 7.99838 5.73335 8.00002H24.4C25.3901 8.00002 26.3397 8.37462 27.0399 9.04142C27.74 9.70821 28.1333 10.6126 28.1333 11.5556V13.3333H29.5C29.7761 13.3333 30 13.5572 30 13.8333V18.1667C30 18.4428 29.7761 18.6667 29.5 18.6667H28.1333ZM26 13C26 11 25 10 23 10H7C5 10 4 11 4 13V19C4 21 5 22 7 22H23C25 22 26 21 26 19V13Z"/>
<path d="M13.5 19H15.5C15.7761 19 16 18.7761 16 18.5V13.5C16 13.2239 15.7761 13 15.5 13H13.5C13.2239 13 13 13.2239 13 13.5V18.5C13 18.7761 13.2239 19 13.5 19Z"/>
<path d="M8.5 19H10.5C10.7761 19 11 18.7761 11 18.5V13.5C11 13.2239 10.7761 13 10.5 13H8.5C8.22386 13 8 13.2239 8 13.5V18.5C8 18.7761 8.22386 19 8.5 19Z"/>
<path d="M18.5 19H20.5C20.7761 19 21 18.7761 21 18.5V13.5C21 13.2239 20.7761 13 20.5 13H18.5C18.2239 13 18 13.2239 18 13.5V18.5C18 18.7761 18.2239 19 18.5 19Z"/>
</symbol><symbol viewBox="0 0 32 32" id="battery-red" xmlns="http://www.w3.org/2000/svg">
<path fill-rule="evenodd" clip-rule="evenodd" d="M28.1333 18.6667V20.4445C28.1304 21.3866 27.7361 22.2893 27.0366 22.9555C26.3371 23.6217 25.3892 23.9972 24.4 24H5.73335C4.74321 24 3.79363 23.6254 3.09349 22.9586C2.39336 22.2918 2.00002 21.3874 2.00002 20.4445V11.5556C1.9983 11.0882 2.09368 10.6251 2.28069 10.193C2.46769 9.76086 2.74262 9.36824 3.08964 9.03775C3.43666 8.70726 3.8489 8.44542 4.30263 8.26732C4.75636 8.08922 5.2426 7.99838 5.73335 8.00002H24.4C25.3901 8.00002 26.3397 8.37462 27.0399 9.04142C27.74 9.70821 28.1333 10.6126 28.1333 11.5556V13.3333H29.5C29.7761 13.3333 30 13.5572 30 13.8333V18.1667C30 18.4428 29.7761 18.6667 29.5 18.6667H28.1333ZM26 13C26 11 25 10 23 10H7C5 10 4 11 4 13V19C4 21 5 22 7 22H23C25 22 26 21 26 19V13ZM11 18.5C11 18.7761 10.7761 19 10.5 19H8.5C8.22386 19 8 18.7761 8 18.5V13.5C8 13.2239 8.22386 13 8.5 13H10.5C10.7761 13 11 13.2239 11 13.5V18.5Z"/>
</symbol><symbol viewBox="0 0 32 32" id="battery-yellow" xmlns="http://www.w3.org/2000/svg">
<path fill-rule="evenodd" clip-rule="evenodd" d="M28.1333 18.6667V20.4445C28.1304 21.3866 27.7361 22.2893 27.0366 22.9555C26.3371 23.6217 25.3892 23.9972 24.4 24H5.73335C4.74321 24 3.79363 23.6254 3.09349 22.9586C2.39336 22.2918 2.00002 21.3874 2.00002 20.4445V11.5556C1.9983 11.0882 2.09368 10.6251 2.28069 10.193C2.46769 9.76086 2.74262 9.36824 3.08964 9.03775C3.43666 8.70726 3.8489 8.44542 4.30263 8.26732C4.75636 8.08922 5.2426 7.99838 5.73335 8.00002H24.4C25.3901 8.00002 26.3397 8.37462 27.0399 9.04142C27.74 9.70821 28.1333 10.6126 28.1333 11.5556V13.3333H29.5C29.7761 13.3333 30 13.5572 30 13.8333V18.1667C30 18.4428 29.7761 18.6667 29.5 18.6667H28.1333ZM26 13C26 11 25 10 23 10H7C5 10 4 11 4 13V19C4 21 5 22 7 22H23C25 22 26 21 26 19V13Z"/>
<path d="M13.5 19H15.5C15.7761 19 16 18.7761 16 18.5V13.5C16 13.2239 15.7761 13 15.5 13H13.5C13.2239 13 13 13.2239 13 13.5V18.5C13 18.7761 13.2239 19 13.5 19Z"/>
<path d="M8.5 19H10.5C10.7761 19 11 18.7761 11 18.5V13.5C11 13.2239 10.7761 13 10.5 13H8.5C8.22386 13 8 13.2239 8 13.5V18.5C8 18.7761 8.22386 19 8.5 19Z"/>
</symbol><symbol viewBox="0 0 32 32" id="call" xmlns="http://www.w3.org/2000/svg">
<path d="M23.137 30C21.6626 30 20.11 29.6484 18.5051 28.9712C16.9394 28.307 15.3607 27.3953 13.8211 26.2884C12.2945 25.1684 10.8201 23.9181 9.42405 22.5507C8.04101 21.1572 6.78844 19.6856 5.6794 18.1749C4.55732 16.6121 3.65704 15.0493 3.01771 13.5386C2.33924 11.9237 2 10.3609 2 8.8893C2 7.87349 2.18267 6.90977 2.53495 6.01116C2.90028 5.08651 3.48742 4.22698 4.28332 3.48465C5.28798 2.49488 6.43616 2 7.66263 2C8.17148 2 8.69338 2.11721 9.137 2.32558C9.64585 2.56 10.0764 2.91163 10.3896 3.38047L13.4166 7.63907C13.6906 8.01674 13.8993 8.3814 14.0429 8.74605C14.2125 9.13674 14.3038 9.52744 14.3038 9.90512C14.3038 10.4 14.1603 10.8819 13.8863 11.3377C13.6906 11.6893 13.3905 12.067 13.0121 12.4447L12.1249 13.3693C12.1379 13.4084 12.151 13.4344 12.164 13.4605C12.3206 13.734 12.6337 14.2028 13.2339 14.906C13.8733 15.6353 14.4734 16.2995 15.0736 16.9116C15.8434 17.667 16.4828 18.266 17.0829 18.7609C17.8267 19.386 18.3094 19.6986 18.5965 19.8419L18.5704 19.907L19.5228 18.9693C19.9273 18.5656 20.3187 18.266 20.6971 18.0707C21.4147 17.6279 22.3281 17.5498 23.2414 17.9274C23.5806 18.0707 23.9459 18.266 24.3374 18.5395L28.6692 21.613C29.1519 21.9386 29.5042 22.3553 29.713 22.8502C29.9087 23.3451 30 23.8009 30 24.2567C30 24.8819 29.8565 25.507 29.5825 26.093C29.3085 26.6791 28.9692 27.187 28.5387 27.6558C27.795 28.4763 26.986 29.0623 26.0466 29.44C25.1463 29.8047 24.1678 30 23.137 30ZM7.66263 3.95349C6.94501 3.95349 6.27959 4.26605 5.64026 4.89116C5.04007 5.45116 4.62255 6.06326 4.3616 6.72744C4.0876 7.40465 3.95713 8.12093 3.95713 8.8893C3.95713 10.1005 4.24418 11.4158 4.81827 12.7702C5.40541 14.1507 6.2274 15.5833 7.2712 17.0158C8.315 18.4484 9.50233 19.8419 10.8071 21.1572C12.1118 22.4465 13.521 23.6447 14.9692 24.6995C16.3784 25.7284 17.8267 26.5619 19.2619 27.1609C21.493 28.1116 23.5806 28.333 25.3029 27.6167C25.9683 27.3433 26.5555 26.9265 27.0904 26.3274C27.3905 26.0019 27.6254 25.6502 27.8211 25.2335C27.9776 24.9079 28.0559 24.5693 28.0559 24.2307C28.0559 24.0223 28.0168 23.814 27.9124 23.5795C27.8733 23.5014 27.795 23.3581 27.5471 23.1888L23.2153 20.1153C22.9543 19.933 22.7195 19.8028 22.4977 19.7116C22.2106 19.5944 22.0932 19.4772 21.6496 19.7507C21.3886 19.8809 21.1538 20.0763 20.8928 20.3367L19.9012 21.3135C19.3924 21.8084 18.6095 21.9256 18.0093 21.7042L17.657 21.5479C17.1221 21.2614 16.4958 20.8186 15.8043 20.2326C15.178 19.6986 14.4995 19.0735 13.6775 18.266C13.0382 17.6149 12.3989 16.9247 11.7335 16.1563C11.1202 15.44 10.6766 14.8279 10.4026 14.32L10.246 13.9293C10.1678 13.6298 10.1417 13.4605 10.1417 13.2781C10.1417 12.8093 10.3113 12.3926 10.6375 12.067L11.616 11.0512C11.877 10.7907 12.0727 10.5433 12.2032 10.3219C12.3075 10.1526 12.3467 10.0093 12.3467 9.87907C12.3467 9.77488 12.3075 9.6186 12.2423 9.46233C12.151 9.25395 12.0075 9.01953 11.8248 8.77209L8.79776 4.50047C8.66729 4.31814 8.51072 4.18791 8.315 4.09674C8.10624 4.00558 7.88444 3.95349 7.66263 3.95349ZM18.5704 19.92L18.3616 20.8056L18.7139 19.894C18.6486 19.8809 18.5965 19.894 18.5704 19.92Z"/>
</symbol><symbol viewBox="0 0 32 32" id="card" xmlns="http://www.w3.org/2000/svg">
<path d="M29.837 13.7175C30.1725 12.8383 29.9872 11.8042 29.2799 11.0969L20.9031 2.72013C19.9435 1.76055 18.3822 1.76066 17.4227 2.72013L8.00523 12.1377H4.461C3.10401 12.1377 2 13.2417 2 14.5987V27.539C2 28.896 3.10401 30 4.461 30H27.5397C28.8967 30 30.0007 28.896 30.0007 27.539V14.5987C30.0007 14.2882 29.9424 13.9913 29.837 13.7175ZM28.0552 12.1924C27.8889 12.1568 27.7165 12.1377 27.5397 12.1377H25.7622L26.8813 11.0185L28.0552 12.1924ZM25.7212 9.8584L23.4419 12.1377H21.1216L24.561 8.69823L25.7212 9.8584ZM18.5829 3.88024C18.7428 3.72033 18.9529 3.64032 19.163 3.64032C19.373 3.64032 19.5831 3.72033 19.743 3.88024L23.4009 7.53817L18.8014 12.1377H10.3254L18.5829 3.88024ZM28.3601 27.539C28.3601 27.9913 27.9921 28.3593 27.5397 28.3593H4.461C4.00867 28.3593 3.64067 27.9913 3.64067 27.539V14.5987C3.64067 14.1463 4.00867 13.7783 4.461 13.7783H27.5397C27.9921 13.7783 28.3601 14.1463 28.3601 14.5987V27.539Z"/>
<path d="M5.22656 24.2348H9.04948V25.8755H5.22656V24.2348Z"/>
<path d="M11.1345 24.2348H14.9574V25.8755H11.1345V24.2348Z"/>
<path d="M17.0425 24.2348H20.8653V25.8755H17.0425V24.2348Z"/>
<path d="M22.9504 24.2348H26.7734V25.8755H22.9504V24.2348Z"/>
<path d="M9.45221 15.9655H6.64847C5.89459 15.9655 5.28125 16.5788 5.28125 17.3327V19.5202C5.28125 20.2741 5.89459 20.8875 6.64847 20.8875H9.45221C10.2061 20.8875 10.8194 20.2741 10.8194 19.5202V17.3327C10.8194 16.5788 10.2061 15.9655 9.45221 15.9655ZM9.17877 19.2468H6.92192V17.6061H9.17877V19.2468Z"/>
</symbol><symbol viewBox="0 0 32 32" id="cart" xmlns="http://www.w3.org/2000/svg">
<path d="M13.0456 29C11.4944 29 10.2324 27.7477 10.2324 26.2086C10.2324 24.6694 11.4944 23.4175 13.0456 23.4175C14.5967 23.4175 15.8587 24.6694 15.8587 26.2086C15.8587 27.7477 14.5967 29 13.0456 29ZM13.0456 25.1696C12.4682 25.1696 11.9981 25.6356 11.9981 26.2086C11.9981 26.7819 12.4678 27.248 13.0456 27.248C13.6234 27.248 14.093 26.7819 14.093 26.2086C14.093 25.6356 13.6234 25.1696 13.0456 25.1696Z"/>
<path d="M22.8264 29.0001C21.2752 29.0001 20.0137 27.7478 20.0137 26.2086C20.0137 24.6694 21.2752 23.4176 22.8264 23.4176C24.3775 23.4176 25.6395 24.6694 25.6395 26.2086C25.6395 27.7478 24.3771 29.0001 22.8264 29.0001ZM22.8264 25.1697C22.249 25.1697 21.7793 25.6357 21.7793 26.2086C21.7793 26.782 22.249 27.248 22.8264 27.248C23.4042 27.248 23.8739 26.782 23.8739 26.2086C23.8739 25.6357 23.4037 25.1697 22.8264 25.1697Z"/>
<path d="M24.8847 21.2533H11.0159C9.6665 21.2533 8.51397 20.3418 8.21292 19.0365L5.33445 6.56323C5.29649 6.39854 5.18172 6.2575 5.02723 6.18654L2.63961 5.08844C2.08696 4.83439 1.84639 4.18351 2.10241 3.63468C2.35843 3.08629 3.01481 2.84757 3.56747 3.10162L5.95508 4.19971C6.72447 4.55319 7.29699 5.25401 7.48591 6.07441L10.3644 18.5486C10.4341 18.8517 10.7021 19.0637 11.0159 19.0637H24.8847C25.1973 19.0637 25.4648 18.853 25.5363 18.5508L27.7743 8.99639C27.8383 8.72482 27.7217 8.52728 27.6471 8.43398C27.5721 8.34024 27.4043 8.18344 27.1236 8.18344H10.7912C10.1816 8.18344 9.68769 7.6933 9.68769 7.08841C9.68769 6.48351 10.1816 5.99337 10.7912 5.99337H27.1236C28.006 5.99337 28.8261 6.38627 29.3753 7.07176C29.9244 7.75725 30.1239 8.63941 29.9244 9.49222L27.686 19.047C27.381 20.3457 26.2293 21.2533 24.8847 21.2533Z"/>
</symbol><symbol viewBox="0 0 32 32" fill="none" id="cash" xmlns="http://www.w3.org/2000/svg">
<path d="M18.2546 5.76611L15.0859 7.21907L23.9992 12.3315L21.5494 6.98921C20.3045 7.3835 18.9403 6.87662 18.2546 5.76611Z" fill="currentColor"/>
<path d="M18.2609 4.98686C18.4378 4.90598 18.6476 4.98342 18.7287 5.16057C19.2239 6.23983 20.5047 6.71455 21.5844 6.22053C21.7618 6.1401 21.9713 6.21685 22.0522 6.39424L25.0038 12.8307H26.8424L22.2222 2.75551C22.0782 2.44118 21.8204 2.20198 21.4962 2.08158C21.1719 1.96117 20.8202 1.9745 20.5065 2.11857L12.5518 5.76629L14.3331 6.78799L18.2609 4.98686Z" fill="currentColor"/>
<path d="M8.35912 9.77993L6.60938 12.8307H18.6731L11.7513 8.8606C10.9678 9.90424 9.56314 10.285 8.35912 9.77993Z" fill="currentColor"/>
<path d="M7.91184 9.14169C8.0088 8.97257 8.22457 8.91398 8.39345 9.01118C9.42353 9.60078 10.7422 9.24417 11.3337 8.21431C11.3801 8.13297 11.4571 8.07369 11.5474 8.04911C11.6374 8.02498 11.7344 8.03716 11.8153 8.0838L20.0917 12.831H23.4503L9.8392 5.02388C9.53934 4.85201 9.19055 4.80652 8.85668 4.89728C8.52305 4.98758 8.24456 5.20242 8.07269 5.5025L3.86914 12.831H5.79578L7.91184 9.14169Z" fill="currentColor"/>
<path d="M28.7054 13.5367H3.2941C2.58041 13.5367 2 14.1173 2 14.8308V28.706C2 29.4195 2.58041 30.0001 3.2941 30.0001H28.7054C29.4191 30.0001 29.9995 29.4195 29.9995 28.706V14.8308C29.9995 14.1173 29.4191 13.5367 28.7054 13.5367ZM28.1172 24.9414C28.1172 25.1362 27.9591 25.2943 27.7643 25.2943C26.4019 25.2943 25.2937 26.4025 25.2937 27.7648C25.2937 27.9597 25.1356 28.1178 24.9408 28.1178H7.05874C6.86389 28.1178 6.70581 27.9597 6.70581 27.7648C6.70581 26.4025 5.5976 25.2943 4.23526 25.2943C4.04041 25.2943 3.88232 25.1362 3.88232 24.9414V18.5954C3.88232 18.4006 4.04041 18.2425 4.23526 18.2425C5.5976 18.2425 6.70581 17.1343 6.70581 15.7719C6.70581 15.5771 6.86389 15.419 7.05874 15.419H24.9408C25.1356 15.419 25.2937 15.5771 25.2937 15.7719C25.2937 17.1343 26.4019 18.2425 27.7643 18.2425C27.9591 18.2425 28.1172 18.4006 28.1172 18.5954V24.9414Z" fill="currentColor"/>
<path d="M24.6079 16.1248H7.39264C7.2295 17.5949 6.05879 18.7656 4.58868 18.9288V24.6079C6.05879 24.771 7.2295 25.9418 7.39264 27.4119H24.6079C24.771 25.9418 25.9417 24.771 27.4118 24.6079V18.9288C25.9417 18.7656 24.771 17.5949 24.6079 16.1248ZM16.0003 25.8859C13.7298 25.8859 11.8827 24.0388 11.8827 21.7683C11.8827 19.4979 13.7298 17.6508 16.0003 17.6508C18.2707 17.6508 20.1178 19.4979 20.1178 21.7683C20.1178 24.0388 18.2707 25.8859 16.0003 25.8859Z" fill="currentColor"/>
<path d="M15.9998 25.1799C17.884 25.1799 19.4115 23.6524 19.4115 21.7682C19.4115 19.8839 17.884 18.3564 15.9998 18.3564C14.1155 18.3564 12.5881 19.8839 12.5881 21.7682C12.5881 23.6524 14.1155 25.1799 15.9998 25.1799Z" fill="currentColor"/>
</symbol><symbol viewBox="0 0 32 32" id="catalog" xmlns="http://www.w3.org/2000/svg">
<path d="M13.8462 2H3.07695C2.48216 2 2 2.48216 2 3.07695V13.8463C2 14.4411 2.48216 14.9232 3.07695 14.9232H13.8463C14.4411 14.9232 14.9232 14.4411 14.9232 13.8463V3.07695C14.9232 2.48216 14.441 2 13.8462 2ZM13 13H4V4H13V13Z"/>
<path d="M28.9231 2H18.1537C17.5589 2 17.0768 2.48216 17.0768 3.07695V13.8463C17.0768 14.4411 17.5589 14.9232 18.1537 14.9232H28.9231C29.5179 14.9232 30 14.4411 30 13.8463V3.07695C30 2.48216 29.5178 2 28.9231 2ZM28.0006 13H19.0006L19.0006 4H28.0006L28.0006 13Z"/>
<path d="M13.8462 17.0772H3.07695C2.48216 17.0772 2 17.5594 2 18.1542V28.9235C2 29.5183 2.48216 30.0004 3.07695 30.0004H13.8463C14.4411 30.0004 14.9232 29.5183 14.9232 28.9235V18.1542C14.9232 17.5594 14.441 17.0772 13.8462 17.0772ZM13 28.0001H4V19.0001L13 19.0001V28.0001Z"/>
<path d="M28.9231 17.0772H18.1537C17.5589 17.0772 17.0768 17.5594 17.0768 18.1542V28.9235C17.0768 29.5183 17.5589 30.0004 18.1537 30.0004H28.9231C29.5179 30.0004 30 29.5183 30 28.9235V18.1542C30 17.5594 29.5178 17.0772 28.9231 17.0772ZM28.0006 28.0001L19.0006 28.0001V19.0001H28.0006V28.0001Z"/>
</symbol><symbol viewBox="0 0 32 32" id="check" xmlns="http://www.w3.org/2000/svg">
<path d="M11.7914 26C11.4397 26 11.0879 25.8625 10.8199 25.5888L2.4031 16.9924C1.86563 16.4437 1.86563 15.5566 2.4031 15.0079C2.94032 14.4593 3.80867 14.4593 4.34614 15.0079L11.7914 22.6119L27.6541 6.4115C28.1913 5.86283 29.0596 5.86283 29.5971 6.4115C30.1343 6.96042 30.1343 7.84728 29.5971 8.3962L12.7632 25.5888C12.4952 25.8625 12.1432 26 11.7914 26Z"/>
</symbol><symbol viewBox="0 0 32 32" fill="none" id="circle-minus" xmlns="http://www.w3.org/2000/svg">
<path fill-rule="evenodd" clip-rule="evenodd" d="M16 28C22.6274 28 28 22.6274 28 16C28 9.37258 22.6274 4 16 4C9.37258 4 4 9.37258 4 16C4 22.6274 9.37258 28 16 28ZM16 30C23.732 30 30 23.732 30 16C30 8.26801 23.732 2 16 2C8.26801 2 2 8.26801 2 16C2 23.732 8.26801 30 16 30Z" fill="currentColor"/>
<path d="M23 15V17L9 17L9 15L23 15Z" fill="currentColor"/>
</symbol><symbol viewBox="0 0 32 32" fill="none" id="circle-plus" xmlns="http://www.w3.org/2000/svg">
<path fill-rule="evenodd" clip-rule="evenodd" d="M16 28C22.6274 28 28 22.6274 28 16C28 9.37258 22.6274 4 16 4C9.37258 4 4 9.37258 4 16C4 22.6274 9.37258 28 16 28ZM16 30C23.732 30 30 23.732 30 16C30 8.26801 23.732 2 16 2C8.26801 2 2 8.26801 2 16C2 23.732 8.26801 30 16 30Z" fill="currentColor"/>
<path d="M15 9H17V23H15V9Z" fill="currentColor"/>
<path d="M23 15V17L9 17L9 15L23 15Z" fill="currentColor"/>
</symbol><symbol viewBox="0 0 32 32" id="clear" xmlns="http://www.w3.org/2000/svg">
<path d="M27.0769 5.73316H20.5231C20.3112 4.67821 19.7452 3.72977 18.9209 3.04852C18.0965 2.36727 17.0646 1.99512 16 1.99512C14.9354 1.99512 13.9035 2.36727 13.0791 3.04852C12.2548 3.72977 11.6888 4.67821 11.4769 5.73316H4.92308C4.67826 5.73316 4.44347 5.83149 4.27036 6.00653C4.09725 6.18156 4 6.41896 4 6.6665C4 6.91403 4.09725 7.15143 4.27036 7.32647C4.44347 7.5015 4.67826 7.59984 4.92308 7.59984H5.84615V23.5506C5.84811 25.2605 6.52075 26.8998 7.71652 28.1088C8.91229 29.3179 10.5335 29.998 12.2246 30H19.7754C21.4665 29.998 23.0877 29.3179 24.2835 28.1088C25.4792 26.8998 26.1519 25.2605 26.1538 23.5506V7.59984H27.0769C27.3217 7.59984 27.5565 7.5015 27.7296 7.32647C27.9027 7.15143 28 6.91403 28 6.6665C28 6.41896 27.9027 6.18156 27.7296 6.00653C27.5565 5.83149 27.3217 5.73316 27.0769 5.73316ZM16 3.86648C16.5726 3.86718 17.1309 4.04696 17.5984 4.38116C18.0659 4.71536 18.4198 5.18761 18.6114 5.73316H13.3886C13.5802 5.18761 13.9341 4.71536 14.4016 4.38116C14.8691 4.04696 15.4274 3.86718 16 3.86648ZM24.3077 23.5506C24.3062 24.7656 23.8282 25.9303 22.9786 26.7894C22.1289 27.6485 20.977 28.1318 19.7754 28.1333H12.2246C11.023 28.1318 9.87106 27.6485 9.02141 26.7894C8.17175 25.9303 7.69377 24.7656 7.69231 23.5506V7.59984H24.3077V23.5506Z"/>
<path d="M13.2311 12.2666C12.9862 12.2666 12.7515 12.3649 12.5783 12.54C12.4052 12.715 12.308 12.9524 12.308 13.1999V22.5333C12.308 22.7809 12.4052 23.0183 12.5783 23.1933C12.7515 23.3684 12.9862 23.4667 13.2311 23.4667C13.4759 23.4667 13.7107 23.3684 13.8838 23.1933C14.0569 23.0183 14.1541 22.7809 14.1541 22.5333V13.1999C14.1541 12.9524 14.0569 12.715 13.8838 12.54C13.7107 12.3649 13.4759 12.2666 13.2311 12.2666Z"/>
<path d="M18.7691 12.2666C18.5243 12.2666 18.2895 12.3649 18.1164 12.54C17.9433 12.715 17.8461 12.9524 17.8461 13.1999V22.5333C17.8461 22.7809 17.9433 23.0183 18.1164 23.1933C18.2895 23.3684 18.5243 23.4667 18.7691 23.4667C19.014 23.4667 19.2488 23.3684 19.4219 23.1933C19.595 23.0183 19.6922 22.7809 19.6922 22.5333V13.1999C19.6922 12.9524 19.595 12.715 19.4219 12.54C19.2488 12.3649 19.014 12.2666 18.7691 12.2666Z"/>
</symbol><symbol viewBox="0 0 32 32" id="click" xmlns="http://www.w3.org/2000/svg">
<path d="M21.2921 9.51903L2.6255 16.0523C2.44888 16.114 2.29487 16.2274 2.18348 16.3777C2.07208 16.528 2.00843 16.7083 2.00078 16.8953C1.99313 17.0822 2.04185 17.2671 2.1406 17.4261C2.23934 17.585 2.38357 17.7105 2.55457 17.7864L10.626 21.3742L14.2137 29.4456C14.287 29.6106 14.4066 29.7508 14.558 29.8492C14.7095 29.9476 14.8862 30 15.0668 30H15.105C15.2913 29.9918 15.4709 29.9281 15.6206 29.817C15.7703 29.7059 15.8833 29.5524 15.945 29.3765L22.4783 10.71C22.5364 10.5443 22.5467 10.3657 22.5079 10.1945C22.469 10.0234 22.3828 9.8666 22.2589 9.74225C22.135 9.6179 21.9786 9.531 21.8076 9.49151C21.6366 9.45203 21.4579 9.46157 21.2921 9.51903ZM14.9641 26.5364L12.1865 20.2878C12.0927 20.0764 11.9237 19.9075 11.7124 19.8136L5.46375 17.037L20.0787 11.9214L14.9641 26.5364Z"/>
<path d="M21.5999 2.00006C21.3524 2.00006 21.115 2.09839 20.9399 2.27343C20.7649 2.44846 20.6666 2.68585 20.6666 2.93339V6.6667C20.6666 6.91423 20.7649 7.15163 20.9399 7.32666C21.115 7.50169 21.3524 7.60003 21.5999 7.60003C21.8474 7.60003 22.0848 7.50169 22.2599 7.32666C22.4349 7.15163 22.5332 6.91423 22.5332 6.6667V2.93339C22.5332 2.68585 22.4349 2.44846 22.2599 2.27343C22.0848 2.09839 21.8474 2.00006 21.5999 2.00006Z"/>
<path d="M29.0665 9.46674H25.3332C25.0857 9.46674 24.8483 9.56507 24.6732 9.7401C24.4982 9.91513 24.3999 10.1525 24.3999 10.4001C24.3999 10.6476 24.4982 10.885 24.6732 11.06C24.8483 11.2351 25.0857 11.3334 25.3332 11.3334H29.0665C29.314 11.3334 29.5514 11.2351 29.7265 11.06C29.9015 10.885 29.9998 10.6476 29.9998 10.4001C29.9998 10.1525 29.9015 9.91513 29.7265 9.7401C29.5514 9.56507 29.314 9.46674 29.0665 9.46674Z"/>
<path d="M25.0601 12.5401C24.8841 12.3701 24.6483 12.276 24.4036 12.2781C24.1589 12.2802 23.9248 12.3784 23.7518 12.5514C23.5787 12.7245 23.4806 12.9586 23.4784 13.2033C23.4763 13.448 23.5704 13.6838 23.7404 13.8598L26.0737 16.1931C26.2497 16.3631 26.4855 16.4572 26.7302 16.4551C26.9749 16.453 27.209 16.3548 27.3821 16.1817C27.5551 16.0087 27.6533 15.7746 27.6554 15.5299C27.6575 15.2852 27.5634 15.0494 27.3934 14.8734L25.0601 12.5401Z"/>
<path d="M18.1404 8.25983C18.3164 8.42984 18.5522 8.52392 18.7969 8.52179C19.0416 8.51966 19.2757 8.4215 19.4488 8.24846C19.6218 8.07541 19.72 7.84132 19.7221 7.59661C19.7242 7.35189 19.6302 7.11613 19.4601 6.9401L17.1268 4.60678C16.9508 4.43677 16.715 4.3427 16.4703 4.34482C16.2256 4.34695 15.9915 4.44511 15.8185 4.61815C15.6454 4.7912 15.5473 5.02529 15.5451 5.27C15.543 5.51472 15.6371 5.75048 15.8071 5.92651L18.1404 8.25983Z"/>
<path d="M24.4001 8.53346C24.6476 8.53341 24.885 8.43504 25.06 8.26L27.3933 5.92668C27.4824 5.84058 27.5535 5.7376 27.6024 5.62373C27.6514 5.50986 27.6771 5.38739 27.6782 5.26346C27.6793 5.13953 27.6557 5.01663 27.6087 4.90193C27.5618 4.78723 27.4925 4.68302 27.4049 4.59539C27.3172 4.50775 27.213 4.43845 27.0983 4.39152C26.9836 4.34459 26.8607 4.32098 26.7368 4.32206C26.6129 4.32313 26.4904 4.34888 26.3765 4.3978C26.2626 4.44671 26.1597 4.51781 26.0736 4.60696L23.7402 6.94027C23.6098 7.0708 23.5209 7.23709 23.4849 7.41811C23.4489 7.59913 23.4674 7.78676 23.538 7.95728C23.6086 8.1278 23.7282 8.27355 23.8817 8.37611C24.0351 8.47866 24.2155 8.53342 24.4001 8.53346Z"/>
</symbol><symbol viewBox="0 0 32 32" fill="none" id="close" xmlns="http://www.w3.org/2000/svg">
<path d="M25.9039 6.09655C20.4414 0.635135 11.5577 0.635135 6.09516 6.09655C0.634948 11.558 0.634948 20.4439 6.09516 25.9053C8.82644 28.6355 12.4133 29.9999 16.0001 29.9999C19.587 29.9999 23.1727 28.6354 25.9039 25.9053C31.3654 20.444 31.3654 11.558 25.9039 6.09655ZM21.7767 20.1276C22.233 20.584 22.233 21.3217 21.7767 21.778C21.549 22.0057 21.2503 22.1201 20.9514 22.1201C20.6526 22.1201 20.3538 22.0057 20.1262 21.778L16.0001 17.6508L11.8752 21.7768C11.6464 22.0044 11.3476 22.1189 11.0499 22.1189C10.7511 22.1189 10.4523 22.0044 10.2247 21.7768C9.76832 21.3205 9.76832 20.5816 10.2247 20.1264L14.3496 16.0003L10.2235 11.8743C9.76717 11.4179 9.76717 10.679 10.2235 10.2238C10.6787 9.76747 11.4176 9.76747 11.874 10.2238L16 14.3499L20.1261 10.2238C20.5825 9.76747 21.3202 9.76747 21.7765 10.2238C22.2329 10.679 22.2329 11.4179 21.7765 11.8743L17.6505 16.0003L21.7767 20.1276Z" fill="currentColor"/>
</symbol><symbol viewBox="0 0 20 20" id="close-popup" xmlns="http://www.w3.org/2000/svg">
<path d="M16.19 3.81028C12.7759 0.396899 7.22357 0.396899 3.80947 3.81028C0.396843 7.22366 0.396843 12.7774 3.80947 16.1908C5.51652 17.8971 7.75829 18.7499 10.0001 18.7499C12.2419 18.7499 14.4829 17.8971 16.19 16.1908C19.6033 12.7774 19.6033 7.22366 16.19 3.81028ZM13.6104 12.5797C13.8956 12.8649 13.8956 13.326 13.6104 13.6112C13.4682 13.7535 13.2814 13.825 13.0946 13.825C12.9079 13.825 12.7211 13.7535 12.5789 13.6112L10.0001 11.0317L7.42198 13.6105C7.279 13.7527 7.09223 13.8242 6.9062 13.8242C6.71946 13.8242 6.53268 13.7527 6.39043 13.6105C6.1052 13.3252 6.1052 12.8635 6.39043 12.579L8.96851 10.0002L6.38971 7.42135C6.10448 7.13612 6.10448 6.67434 6.38971 6.38983C6.67422 6.10461 7.136 6.10461 7.42122 6.38983L10 8.96864L12.5788 6.38983C12.8641 6.10461 13.3251 6.10461 13.6103 6.38983C13.8956 6.67434 13.8956 7.13612 13.6103 7.42135L11.0315 10.0002L13.6104 12.5797Z"/>
</symbol><symbol viewBox="0 0 32 32" id="compare" xmlns="http://www.w3.org/2000/svg">
<path d="M29.9122 19.0566L24.9876 9.39496C24.8941 9.21153 24.7308 9.06706 24.5316 8.99653L18.4604 6.8127C18.5424 4.48062 15.5397 3.36176 14.0584 5.22927C14.0492 5.22597 7.98885 3.04608 7.99525 3.04841C7.60692 2.90918 7.16991 3.079 6.98299 3.44586L2.08771 13.0526C2.02379 13.1781 1.99639 13.3253 2.00038 13.443C2.01454 16.5618 4.58594 19.0947 7.74495 19.0947C10.9049 19.0947 13.4769 16.5603 13.4896 13.4402C13.4933 13.3191 13.464 13.1724 13.4004 13.0491L9.39218 5.27623L13.5373 6.76725C13.5476 7.40267 13.8021 7.99863 14.2579 8.44905C14.5268 8.71474 14.8429 8.90595 15.1797 9.02291V24.0122H15.0341C12.7035 24.0122 10.8074 25.886 10.8074 28.1893C10.8074 28.637 11.1747 29 11.6277 29H20.3722C20.8252 29 21.1925 28.637 21.1925 28.1893C21.1925 25.886 19.2964 24.0122 16.9658 24.0122H16.8202V9.02296C17.2179 8.88482 17.5734 8.64897 17.8604 8.32237L23.1073 10.2096L18.6005 19.0568C18.5363 19.1827 18.5093 19.3297 18.5132 19.4473C18.5275 22.5652 21.0982 25.0975 24.2564 25.0975C27.4147 25.0975 29.9854 22.5651 29.9996 19.4471C30.0041 19.3137 29.9705 19.1709 29.9122 19.0566ZM7.72001 5.60434L11.3308 12.6065H4.15188L7.72001 5.60434ZM7.74495 17.4733C5.76264 17.4733 4.10409 16.0774 3.72303 14.2279H11.7669C11.3858 16.0774 9.72725 17.4733 7.74495 17.4733ZM16.9658 25.6336C18.1052 25.6336 19.0748 26.3655 19.4186 27.3786H12.5814C12.9251 26.3655 13.8948 25.6336 15.0342 25.6336H16.9658ZM15.418 7.30257C15.0971 6.98543 15.0971 6.4694 15.418 6.15226C15.9332 5.6431 16.823 6.00477 16.823 6.72742C16.823 7.45034 15.933 7.81152 15.418 7.30257ZM24.2552 11.5621L27.8479 18.6107H20.6645L24.2552 11.5621ZM24.2564 23.4762C22.2749 23.4762 20.617 22.0808 20.2358 20.2321H28.2769C27.8958 22.0807 26.2379 23.4762 24.2564 23.4762Z"/>
</symbol><symbol viewBox="0 0 32 32" id="dislike" xmlns="http://www.w3.org/2000/svg">
<path d="M2.84032 10.9645C2.25003 11.6964 1.96693 12.481 2.00307 13.289C2.03921 14.179 2.4488 14.8758 2.78611 15.3032C2.39459 16.2518 2.24401 17.7449 3.55109 18.9042C4.50882 19.7532 6.13515 20.1338 8.38791 20.0284C9.97207 19.9582 11.2972 19.6713 11.3514 19.6596L11.3575 19.6596C11.6586 19.6069 11.9779 19.5425 12.3031 19.4722C12.3272 19.8469 12.261 20.7779 11.5502 22.8741C10.7069 25.3685 10.7551 27.2773 11.7068 28.5537C12.7067 29.8946 14.3029 30 14.7728 30C15.2245 30 15.6401 29.8185 15.9353 29.4847C16.6039 28.7294 16.5256 27.3358 16.4412 26.6918C17.2363 24.619 19.465 19.5366 21.3503 18.1255C21.3865 18.102 21.4166 18.0728 21.4467 18.0435C22.0009 17.4755 22.3743 16.8607 22.6273 16.322C22.9827 16.5094 23.3863 16.6148 23.82 16.6148L27.4942 16.6148C28.8796 16.6148 30 15.5199 30 14.179L30 4.66416C30 3.31744 28.8736 2.22836 27.4942 2.22836L23.82 2.22836C23.2839 2.22836 22.7839 2.3923 22.3743 2.67336L20.9588 2.50941C20.742 2.48014 16.887 2.00586 12.9296 2.08198C12.2128 2.02928 11.5382 2 10.9117 2C9.83353 2 8.89388 2.08198 8.11083 2.24592C6.26766 2.62652 5.00876 3.38771 4.37028 4.50607C3.88238 5.36094 3.88238 6.20996 3.96068 6.74864C2.76202 7.8026 2.5512 8.9678 2.59337 9.78754C2.61746 10.2618 2.72588 10.6658 2.84032 10.9645ZM27.4942 3.80929C27.9821 3.80929 28.3737 4.19573 28.3737 4.66416L28.3737 14.1849C28.3737 14.6591 27.9761 15.0397 27.4942 15.0397L23.82 15.0397C23.3321 15.0397 22.9405 14.6533 22.9405 14.1849L22.9405 4.67001C22.9405 4.19573 23.3381 3.81514 23.82 3.81514L27.4942 3.81514L27.4942 3.80929ZM4.38232 11.6495C4.63531 11.3919 4.6835 10.9996 4.49075 10.6951C4.49075 10.6893 4.24379 10.2794 4.21367 9.71728C4.17151 8.95023 4.55098 8.27102 5.34608 7.69135C5.62918 7.48055 5.74362 7.11753 5.62315 6.78963C5.62315 6.78378 5.36415 6.01088 5.78579 5.27897C6.18936 4.57633 7.08685 4.07277 8.44814 3.79172C9.53838 3.56336 11.0202 3.52238 12.8392 3.6629C12.8633 3.6629 12.8934 3.6629 12.9236 3.6629C16.7966 3.58093 20.7119 4.07277 20.754 4.07863L20.76 4.07863L21.3684 4.14889C21.3323 4.31284 21.3142 4.4885 21.3142 4.66416L21.3142 14.1849C21.3142 14.4366 21.3564 14.6826 21.4286 14.9109C21.3202 15.3032 21.0191 16.1757 20.3083 16.9193C17.6038 19.0038 14.9595 26.036 14.845 26.3404C14.7968 26.4634 14.7848 26.5981 14.8089 26.7327C14.9113 27.3885 14.8752 28.1907 14.7306 28.4308C14.4113 28.4249 13.55 28.3371 13.032 27.6403C12.4176 26.8147 12.4417 25.3392 13.1043 23.3835C14.1162 20.4032 14.2005 18.834 13.3994 18.143C13.0019 17.7976 12.4718 17.78 12.0863 17.9147C11.7189 17.9967 11.3695 18.0669 11.0382 18.1196C11.0141 18.1255 10.984 18.1313 10.9599 18.1372C9.11072 18.5295 5.79783 18.7696 4.64736 17.7507C3.67156 16.8842 4.36425 15.7365 4.44256 15.6136C4.66543 15.2857 4.59917 14.8582 4.298 14.5947C4.29197 14.5889 3.65951 14.0092 3.6294 13.2305C3.6053 12.7093 3.85829 12.1765 4.38232 11.6495Z"/>
</symbol><symbol viewBox="0 0 32 32" id="edit" xmlns="http://www.w3.org/2000/svg">
<path d="M6.57116 24.7839C6.57116 24.7839 6.67535 24.7839 6.71442 24.7839L10.5302 24.4265C11.0642 24.3735 11.5591 24.1352 11.9367 23.7513L26.3405 9.10922C27.0177 8.4208 27.3953 7.50733 27.3953 6.5409C27.3953 5.57447 27.0177 4.66099 26.3405 3.97258L25.4158 3.03262C24.0614 1.65579 21.7042 1.65579 20.3498 3.03262L18.5135 4.89929L5.95907 17.6615C5.5814 18.0454 5.34698 18.5485 5.30791 19.0913L4.95628 22.9702C4.91721 23.46 5.08651 23.9366 5.42512 24.2941C5.73767 24.6118 6.1414 24.7839 6.57116 24.7839ZM22.8893 3.9461C23.306 3.9461 23.7228 4.10496 24.0353 4.43593L24.96 5.37589C25.2726 5.69362 25.4419 6.10402 25.4419 6.5409C25.4419 6.97778 25.2726 7.40142 24.96 7.70591L23.814 8.87092L20.5972 5.60095L21.7433 4.43593C22.0558 4.1182 22.4726 3.9461 22.8893 3.9461ZM7.24837 19.2766C7.24837 19.1972 7.28744 19.131 7.33953 19.078L19.2037 7.00426L22.4205 10.2742L10.5563 22.3348C10.5563 22.3348 10.426 22.4274 10.3609 22.4274L6.93581 22.7452L7.24837 19.2634V19.2766ZM30 29.0071C30 29.5499 29.5572 30 29.0233 30H2.97674C2.44279 30 2 29.5499 2 29.0071C2 28.4643 2.44279 28.0142 2.97674 28.0142H29.0233C29.5572 28.0142 30 28.4643 30 29.0071Z"/>
</symbol><symbol viewBox="0 0 32 32" id="exit" xmlns="http://www.w3.org/2000/svg">
<path d="M13.9583 15.1249H2.87499C2.392 15.1249 2 14.7329 2 14.2499C2 13.7669 2.392 13.3749 2.87499 13.3749H13.9583C14.4413 13.3749 14.8333 13.7669 14.8333 14.2499C14.8333 14.7329 14.4413 15.1249 13.9583 15.1249Z"/>
<path d="M9.5834 19.4999C9.35931 19.4999 9.13543 19.4146 8.96496 19.2433C8.62317 18.9013 8.62317 18.3472 8.96496 18.0054L12.7217 14.2488L8.96496 10.4934C8.62317 10.1514 8.62317 9.59723 8.96496 9.25543C9.30676 8.91364 9.86089 8.91364 10.2029 9.25543L14.5779 13.6304C14.9197 13.9722 14.9197 14.5263 14.5779 14.8683L10.2029 19.2433C10.0314 19.4146 9.80727 19.4999 9.5834 19.4999Z"/>
<path d="M20.6667 30C19.3798 30 18.3335 28.9535 18.3335 27.6666V6.66674C18.3335 5.66934 18.9682 4.77917 19.913 4.45126L26.9224 2.11446C28.4904 1.63381 30 2.79698 30 4.33356V25.3334C30 26.3298 29.3654 27.2186 28.4216 27.5476L21.4099 29.8857C21.1544 29.965 20.9177 30 20.6667 30ZM27.6666 3.75016C27.5908 3.75016 27.5267 3.75956 27.4579 3.78049L20.4778 6.1079C20.249 6.18737 20.0835 6.41829 20.0835 6.66674V27.6666C20.0835 28.0646 20.515 28.3329 20.8756 28.2197L27.8557 25.8923C28.0832 25.8128 28.25 25.5819 28.25 25.3334V4.33356C28.25 4.0127 27.9888 3.75016 27.6666 3.75016Z"/>
<path d="M12.2086 7.83337C11.7256 7.83337 11.3336 7.44137 11.3336 6.95838V5.20839C11.3336 3.43853 12.7719 2 14.5418 2H27.6667C28.1497 2 28.5417 2.392 28.5417 2.87499C28.5417 3.35799 28.1497 3.74999 27.6667 3.74999H14.5418C13.7379 3.74999 13.0836 4.40453 13.0836 5.20839V6.95838C13.0836 7.44137 12.6916 7.83337 12.2086 7.83337Z"/>
<path d="M19.2086 26.4996H14.5418C12.7719 26.4996 11.3336 25.0611 11.3336 23.2912V21.5413C11.3336 21.0583 11.7256 20.6663 12.2086 20.6663C12.6916 20.6663 13.0836 21.0583 13.0836 21.5413V23.2912C13.0836 24.0951 13.7379 24.7496 14.5418 24.7496H19.2086C19.6916 24.7496 20.0836 25.1416 20.0836 25.6246C20.0836 26.1076 19.6916 26.4996 19.2086 26.4996Z"/>
</symbol><symbol viewBox="0 0 32 32" id="eye" xmlns="http://www.w3.org/2000/svg">
<path fill-rule="evenodd" clip-rule="evenodd" d="M28.0724 16.4973C25.633 20.6887 21.0068 23.2924 16.0016 23.2924C10.9932 23.2924 6.36705 20.6887 3.9276 16.4973C3.73972 16.1719 3.73972 15.8278 3.9276 15.5027C6.36705 11.3113 10.9932 8.7079 16.0016 8.7079C21.0068 8.7079 25.6329 11.3113 28.0724 15.5027C28.2636 15.8278 28.2636 16.1719 28.0724 16.4973ZM29.6307 14.6716C26.877 9.93939 21.6548 7 16.0016 7C10.3452 7 5.123 9.93939 2.36932 14.6716C1.87689 15.516 1.87689 16.484 2.36932 17.3277C5.123 22.06 10.3452 25 16.0016 25C21.6548 25 26.877 22.06 29.6307 17.3277C30.1231 16.4841 30.1231 15.516 29.6307 14.6716ZM16.0016 19.5034C18.0199 19.5034 19.6624 17.9319 19.6624 15.9999C19.6624 14.0679 18.0199 12.4963 16.0016 12.4963C13.9801 12.4963 12.3376 14.0679 12.3376 15.9999C12.3376 17.9319 13.9801 19.5034 16.0016 19.5034ZM16.0016 10.7884C12.9952 10.7884 10.5526 13.1265 10.5526 15.9999C10.5526 18.8739 12.9953 21.2111 16.0016 21.2111C19.0048 21.2111 21.4474 18.8739 21.4474 15.9999C21.4474 13.1265 19.0048 10.7884 16.0016 10.7884Z"/>
</symbol><symbol viewBox="0 0 32 32" id="facebook" xmlns="http://www.w3.org/2000/svg">
<path d="M17 16H16V17V29H14.0283V17V16H13.0283H10V14H13.0283H14.0283V13V8.57894C14.0283 6.65612 14.6108 5.28936 15.5072 4.4035C16.4066 3.51457 17.7333 2.99996 19.4305 2.99996C20.1379 2.99996 20.7694 2.99109 21.2966 2.98368C21.4536 2.98147 21.6013 2.97939 21.7391 2.97772C21.8321 2.97659 21.919 2.9757 22 2.97505V5.00006H20.5C19.4061 5.00006 18.3408 5.14283 17.5136 5.57209C17.0868 5.79358 16.6983 6.10458 16.4186 6.53298C16.1352 6.96703 16 7.46628 16 8.00006V13V14H17H21.7192L21.2192 16H17Z" stroke-width="2"/>
</symbol><symbol viewBox="0 0 32 32" id="filter" xmlns="http://www.w3.org/2000/svg">
<path d="M13.407 29C13.1319 29 12.8681 28.8926 12.6736 28.7014C12.4791 28.5102 12.3698 28.2508 12.3698 27.9804V18.1769L2.75487 7.78196C2.37638 7.37195 2.12709 6.86276 2.03725 6.31619C1.94741 5.76962 2.02089 5.20916 2.24877 4.70284C2.47665 4.19652 2.84913 3.76611 3.321 3.46384C3.79288 3.16157 4.34386 3.00044 4.90707 3H27.0929C27.6561 3.00044 28.2071 3.16157 28.679 3.46384C29.1509 3.76611 29.5233 4.19652 29.7512 4.70284C29.9791 5.20916 30.0526 5.76962 29.9627 6.31619C29.8729 6.86276 29.6236 7.37195 29.2451 7.78196L19.6302 18.1769V23.902C19.6301 24.0547 19.5951 24.2055 19.5278 24.3431C19.4605 24.4808 19.3626 24.6018 19.2413 24.6973L14.0552 28.7757C13.8714 28.9207 13.6427 28.9998 13.407 29ZM4.90707 5.03922C4.74568 5.03961 4.58785 5.08598 4.45271 5.17272C4.31756 5.25946 4.21088 5.38284 4.14559 5.52794C4.08029 5.67304 4.05918 5.83363 4.08479 5.99028C4.11041 6.14693 4.18167 6.29292 4.28994 6.41059L14.1745 17.1165C14.3439 17.2995 14.4397 17.5369 14.4442 17.7843V25.8596L17.5558 23.3922V17.7843C17.5552 17.5299 17.6514 17.2844 17.8255 17.0961L27.7101 6.3902C27.8119 6.272 27.8776 6.1279 27.8996 5.97454C27.9217 5.82118 27.8991 5.66482 27.8346 5.52353C27.77 5.38224 27.6661 5.26179 27.5349 5.17608C27.4037 5.09038 27.2504 5.04293 27.0929 5.03922H4.90707Z"/>
</symbol><symbol viewBox="0 0 32 32" id="fire" xmlns="http://www.w3.org/2000/svg">
<path d="M22.1231 10.7398C17.1804 7.69915 19.4982 3.40744 19.5977 3.22905C19.742 2.97519 19.7416 2.66287 19.5965 2.40945C19.4515 2.15602 19.1839 2 18.8943 2C16.3501 2 14.3578 2.73095 12.9727 4.17263C10.6061 6.63602 10.7159 10.47 10.7627 12.1072C10.7679 12.2886 10.7724 12.4453 10.7724 12.5617C10.7724 13.7773 10.9653 14.8995 11.1355 15.8896C11.2451 16.5277 11.3398 17.0787 11.3567 17.5119C11.3747 17.9757 11.2909 18.082 11.2874 18.0863C11.2754 18.1006 11.1759 18.1541 10.9068 18.1541C10.6 18.1541 10.3737 18.0528 10.1733 17.8255C9.39039 16.9378 9.33626 14.514 9.48596 13.1953C9.51273 12.9628 9.43999 12.7298 9.28601 12.555C9.13209 12.3802 8.91165 12.2803 8.68017 12.2803C6.57389 12.2803 5 15.7632 5 18.8773C5 20.3413 5.29119 21.7753 5.8655 23.1397C6.42072 24.4586 7.21245 25.6491 8.21878 26.6777C10.3146 28.8201 13.0779 30 15.9997 30C18.9333 30 21.6959 28.8368 23.7786 26.7248C25.856 24.6182 27 21.8312 27 18.8772C26.9999 15.108 24.0834 11.9457 22.1231 10.7398ZM15.9997 28.3594C10.9168 28.3594 6.62256 24.0171 6.62256 18.8772C6.62256 17.6272 6.91753 16.3151 7.43181 15.2774C7.55193 15.035 7.67519 14.827 7.79682 14.6518C7.8104 16.0051 8.02241 17.85 8.96103 18.9159C9.46736 19.4908 10.1402 19.7947 10.9069 19.7947C11.6231 19.7947 12.1689 19.5752 12.529 19.1423C13.2023 18.333 12.9956 17.1308 12.7341 15.6087C12.5751 14.6839 12.395 13.6357 12.395 12.5616C12.395 12.4215 12.3901 12.2539 12.3846 12.0597C12.3402 10.5088 12.2478 7.28177 14.1365 5.31581C14.9844 4.43321 16.1682 3.89607 17.6658 3.71227C17.4967 4.27992 17.351 5.00054 17.3453 5.8074C17.3329 7.58518 18.0054 10.1271 21.2798 12.1415C22.8641 13.1161 25.3775 15.8065 25.3775 18.8773C25.3774 24.1057 21.1706 28.3594 15.9997 28.3594Z"/>
</symbol><symbol viewBox="0 0 32 32" id="gift" xmlns="http://www.w3.org/2000/svg">
<path d="M26.7692 7.73662H25.24C25.533 7.18409 25.6882 6.5691 25.6923 5.94387C25.6932 5.13023 25.4419 4.33627 24.9729 3.67104C24.5039 3.0058 23.8402 2.50192 23.0729 2.22861C22.3057 1.95529 21.4725 1.92595 20.6879 2.14461C19.9032 2.36327 19.2056 2.8192 18.6909 3.44979C18.6521 3.50572 17.0382 5.64268 16 7.02239C14.9604 5.64125 13.345 3.49568 13.2991 3.43688C12.7826 2.80937 12.0846 2.35666 11.3005 2.14074C10.5165 1.92482 9.68478 1.95626 8.91932 2.23074C8.15386 2.50522 7.49206 3.00933 7.02454 3.67403C6.55702 4.33873 6.30664 5.13153 6.30769 5.94387C6.31184 6.5691 6.46701 7.18409 6.76 7.73662H5.23077C4.37427 7.73776 3.55317 8.0781 2.94753 8.68303C2.34189 9.28795 2.00114 10.1081 2 10.9636V15.9833C2 16.2686 2.11346 16.5422 2.31542 16.7439C2.51739 16.9456 2.79131 17.0589 3.07692 17.0589H3.4359V24.5885C3.35158 25.3152 3.43285 26.0514 3.67364 26.7423C3.91442 27.4331 4.30849 28.0607 4.82636 28.5779C5.34424 29.0952 5.97251 29.4888 6.66417 29.7293C7.35584 29.9698 8.093 30.051 8.82051 29.9668H23.1795C23.907 30.051 24.6442 29.9698 25.3358 29.7293C26.0275 29.4888 26.6558 29.0952 27.1736 28.5779C27.6915 28.0607 28.0856 27.4331 28.3264 26.7423C28.5672 26.0514 28.6484 25.3152 28.5641 24.5885V17.0589H28.9231C29.2087 17.0589 29.4826 16.9456 29.6846 16.7439C29.8865 16.5422 30 16.2686 30 15.9833V10.9636C29.9989 10.1081 29.6581 9.28795 29.0525 8.68303C28.4468 8.0781 27.6257 7.73776 26.7692 7.73662ZM27.8462 10.9636V14.9076H17.0769V9.88792H26.7692C27.0547 9.8883 27.3284 10.0018 27.5303 10.2034C27.7322 10.405 27.8458 10.6784 27.8462 10.9636ZM20.3637 4.80654C20.5294 4.60052 20.7396 4.43456 20.9785 4.32107C21.2175 4.20757 21.479 4.14947 21.7436 4.15111C22.2196 4.15111 22.6762 4.33999 23.0128 4.6762C23.3494 5.0124 23.5385 5.4684 23.5385 5.94387C23.5385 6.41933 23.3494 6.87533 23.0128 7.21153C22.6762 7.54774 22.2196 7.73662 21.7436 7.73662H18.1538C19.1259 6.4487 20.2962 4.89403 20.3637 4.80654ZM8.46154 5.94387C8.4623 5.46863 8.65164 5.01308 8.98808 4.67704C9.32452 4.34099 9.78061 4.15187 10.2564 4.15111C10.5162 4.14848 10.7732 4.20391 11.0088 4.31334C11.2443 4.42278 11.4523 4.58345 11.6176 4.7836C11.6923 4.88542 12.8712 6.44584 13.8462 7.73662H10.2564C9.78061 7.73586 9.32452 7.54674 8.98808 7.2107C8.65164 6.87465 8.4623 6.4191 8.46154 5.94387ZM4.15385 10.9636C4.15423 10.6784 4.26781 10.405 4.46969 10.2034C4.67157 10.0018 4.94527 9.8883 5.23077 9.88792H14.9231V14.9076H4.15385V10.9636ZM5.58974 24.5885V17.0589H14.9231V27.8155H8.82051C6.5561 27.8155 5.58974 26.8502 5.58974 24.5885ZM26.4103 24.5885C26.4103 26.8502 25.4439 27.8155 23.1795 27.8155H17.0769V17.0589H26.4103V24.5885Z"/>
</symbol><symbol viewBox="0 0 32 32" id="heart" xmlns="http://www.w3.org/2000/svg">
<path fill-rule="evenodd" clip-rule="evenodd" d="M7.69684 6.42354C5.5363 7.39596 3.95349 9.70894 3.95349 12.4671C3.95349 15.2849 5.12457 17.4568 6.80335 19.3182C8.18698 20.8524 9.86193 22.1238 11.4954 23.3638C11.8834 23.6584 12.269 23.951 12.6479 24.2452C13.3329 24.7768 13.944 25.2436 14.5331 25.5825C15.1224 25.9216 15.5968 26.0765 16 26.0765C16.4032 26.0765 16.8776 25.9216 17.4669 25.5825C18.056 25.2436 18.667 24.7768 19.3522 24.2452C19.731 23.951 20.1167 23.6584 20.5046 23.3638C22.1381 22.1238 23.813 20.8524 25.1966 19.3182C26.8755 17.4568 28.0465 15.2849 28.0465 12.4671C28.0465 9.70894 26.4637 7.39596 24.3031 6.42354C22.2042 5.47881 19.3838 5.729 16.7038 8.47085C16.5196 8.65921 16.2655 8.76566 16 8.76566C15.7345 8.76566 15.4804 8.65921 15.2962 8.47085C12.6161 5.729 9.79581 5.47881 7.69684 6.42354ZM16 6.46793C12.989 3.81531 9.61725 3.44424 6.88471 4.67412C3.99869 5.97309 2 8.98928 2 12.4671C2 15.8852 3.44623 18.4927 5.34271 20.5955C6.86141 22.2793 8.72029 23.6886 10.362 24.9334C10.7342 25.2155 11.0952 25.4892 11.4385 25.7556C12.1056 26.2736 12.8217 26.8256 13.5475 27.2433C14.273 27.6607 15.1009 28 16 28C16.8991 28 17.727 27.6607 18.4525 27.2433C19.1783 26.8256 19.8943 26.2735 20.5615 25.7556C20.9048 25.4892 21.2658 25.2155 21.638 24.9334C23.2797 23.6886 25.1385 22.2793 26.6573 20.5955C28.5538 18.4927 30 15.8852 30 12.4671C30 8.98928 28.0013 5.97309 25.1152 4.67412C22.3827 3.44424 19.0111 3.81531 16 6.46793Z"/>
</symbol><symbol viewBox="0 0 32 32" id="helmet" xmlns="http://www.w3.org/2000/svg">
<path fill-rule="evenodd" clip-rule="evenodd" d="M2 21.3933C2.2335 21.008 2.42288 20.5554 2.58268 20.0506C3.68016 20.0523 4.80586 19.9706 5.93861 19.7988C7.1249 19.619 8.32288 19.3404 9.50879 18.9556C10.3879 18.6702 11.2749 18.3548 12.1599 18.04C13.6822 17.4985 15.1984 16.9592 16.7965 16.5397C17.8519 16.2627 19.0403 16.0853 20.2389 15.9636C21.4442 15.8412 22.6595 15.7751 23.7619 15.7204C24.5776 15.68 25.5065 15.6408 26.4231 15.6103C27.1543 15.5859 27.8803 15.5667 28.5393 15.5564C28.9489 16.0724 29.4236 16.5276 30 16.8951C30 16.8951 20.5628 16.9867 16.9467 18.0444C11.5423 19.6248 8.81107 22.0293 2 21.3933ZM2.72478 19.5571C4.35133 13.4369 2.70147 1.10974 19.0702 4.61654C25.6791 6.07037 25.8517 11.6229 28.1823 15.0695C27.6137 15.0805 27.0108 15.0971 26.4075 15.1172C25.4745 15.1483 24.5442 15.1874 23.7384 15.2274C22.628 15.2824 21.4037 15.3491 20.1881 15.4725C18.9659 15.5966 17.752 15.778 16.6695 16.0622C15.06 16.4847 13.529 17.0293 11.9919 17.576C11.1289 17.8829 10.2637 18.1906 9.35448 18.4857C8.1968 18.8614 7.02562 19.1336 5.86433 19.3097C4.8005 19.4709 3.74805 19.5516 2.72478 19.5571Z"/>
<path fill-rule="evenodd" clip-rule="evenodd" d="M20.3269 27.8626C21.7895 27.2097 21.7646 24.9985 21.6842 23.4697C21.5928 21.7346 21.3437 19.946 21.0772 18.2371C21.0322 17.9487 20.9079 17.3717 20.8606 17.0837C20.325 17.1396 19.8039 17.202 19.3102 17.2718C20.0191 21.5335 20.6274 26.6072 19.5389 26.1114C17.5141 25.1888 14.1957 21.4421 12.3546 19.1501C11.797 19.3686 11.2507 19.5824 10.7021 19.7837C13.2666 22.1749 15.2892 26.1589 18.9863 27.8433C19.4189 28.0404 19.8909 28.0571 20.3269 27.8626Z"/>
</symbol><symbol viewBox="0 0 32 32" id="history" xmlns="http://www.w3.org/2000/svg">
<path d="M15.8721 17.1301L21.1219 21.0298C21.5086 21.3171 22.0568 21.2396 22.3468 20.8565C22.6369 20.4735 22.5586 19.9305 22.1718 19.6433L17.3114 15.9992V8.63297C17.3114 8.15417 16.9199 7.76636 16.4365 7.76636C15.9531 7.76636 15.5615 8.15417 15.5615 8.63297V16.4325C15.5615 16.7202 15.6831 16.9793 15.8721 17.1301Z"/>
<path d="M16.8737 3C10.4694 3 5.00045 7.57831 3.933 13.8326L3.60051 13.343C3.32971 12.9457 2.78549 12.8408 2.38432 13.109C1.98315 13.3772 1.87728 13.9163 2.14808 14.3136L3.898 16.9134C4.04193 17.1301 4.27642 17.2718 4.53672 17.2991H4.62422C4.85608 17.2982 5.07788 17.2064 5.24106 17.0434L7.42846 14.8769C7.77013 14.5385 7.77013 13.9891 7.42846 13.6507C7.08679 13.3122 6.53207 13.3122 6.19039 13.6507L5.64792 14.1923C6.65544 8.05061 12.4989 3.88134 18.6993 4.87925C24.8997 5.87715 29.11 11.6644 28.1024 17.8061C27.2078 23.2596 22.452 27.266 16.8737 27.2651C13.3554 27.3284 10.028 25.6844 7.96219 22.8627C7.68176 22.4728 7.13535 22.3813 6.74162 22.6591C6.34789 22.9368 6.25558 23.478 6.536 23.868C8.92814 27.149 12.7885 29.0646 16.8737 28.9983C24.1223 28.9983 29.998 23.1786 29.998 15.9992C29.998 8.81973 24.1223 3 16.8737 3Z"/>
</symbol><symbol viewBox="0 0 32 32" id="home" xmlns="http://www.w3.org/2000/svg">
<path d="M29.3117 14.2412L18.3857 3.94656C17.0473 2.68643 14.9521 2.68643 13.6147 3.94656L2.71479 14.2179C2.05402 14.7918 1.82723 15.6917 2.13615 16.5116C2.44507 17.3297 3.21037 17.8581 4.08673 17.8581H4.8007V28.0729C4.8007 28.5854 5.21881 29.0015 5.73399 29.0015H26.2664C26.7816 29.0015 27.1997 28.5854 27.1997 28.0729V17.8581H27.9127C28.7891 17.8581 29.5553 17.3288 29.8633 16.5098C30.1722 15.6907 29.9445 14.79 29.3117 14.2412ZM13.2003 27.1442V22.5012C13.2003 20.9653 14.4565 19.7153 16.0002 19.7153C17.5439 19.7153 18.8001 20.9653 18.8001 22.5012V27.1442H13.2003ZM27.9127 16.0009H26.2664C25.7512 16.0009 25.3331 16.4169 25.3331 16.9295V27.1442H20.6667V22.5012C20.6667 19.941 18.5733 17.8581 16.0002 17.8581C13.4271 17.8581 11.3337 19.941 11.3337 22.5012V27.1442H6.66728V16.9295C6.66728 16.4169 6.24917 16.0009 5.73399 16.0009H4.08673C3.901 16.0009 3.76661 15.7697 3.97007 15.5914L14.898 5.29491C15.5158 4.71267 16.4846 4.71267 17.1024 5.29491L28.0565 15.6155C28.2095 15.7474 28.1153 16.0009 27.9127 16.0009Z"/>
</symbol><symbol viewBox="0 0 32 32" stroke-width="0" id="instagram" xmlns="http://www.w3.org/2000/svg">
<path d="M23.0001 1.99976H9.00037C5.15078 1.99976 2.00049 5.15004 2.00049 8.99963V23.0001C2.00049 26.8486 5.15078 29.9999 9.00037 29.9999H23.0001C26.8497 29.9999 30 26.8486 30 23.0001V8.99963C30 5.15004 26.8497 1.99976 23.0001 1.99976ZM28 23.0001C28 25.5725 25.574 28 23.0001 28H9.00037C6.42757 28 4 25.5725 4 23V9C4 6.42686 6.4272 4 9 4H23C25.5739 4 28 6.42649 28 8.99963V23.0001Z"/>
<path d="M23.5 10C24.3284 10 25 9.32843 25 8.5C25 7.67157 24.3284 7 23.5 7C22.6716 7 22 7.67157 22 8.5C22 9.32843 22.6716 10 23.5 10Z"/>
<path d="M16.0002 8.99957C12.1335 8.99957 9.00034 12.133 9.00034 15.9995C9.00034 19.8644 12.1335 23 16.0002 23C19.8659 23 23.0001 19.8644 23.0001 15.9995C23.0001 12.133 19.8659 8.99957 16.0002 8.99957ZM16.0002 20.9999C13.4232 20.9999 11.0001 18.5777 11.0001 15.9999C11.0001 13.4222 13.4231 10.9999 16.0001 10.9999C18.5771 10.9999 21.0001 13.4222 21.0001 15.9999C21.0001 18.5777 18.5772 20.9999 16.0002 20.9999Z"/>
</symbol><symbol viewBox="0 0 32 32" id="like" xmlns="http://www.w3.org/2000/svg">
<path d="M29.1597 21.0355C29.75 20.3036 30.0331 19.519 29.9969 18.711C29.9608 17.821 29.5512 17.1242 29.2139 16.6968C29.6054 15.7482 29.756 14.2551 28.4489 13.0958C27.4912 12.2468 25.8649 11.8662 23.6121 11.9716C22.0279 12.0418 20.7028 12.3287 20.6486 12.3404H20.6425C20.3414 12.3931 20.0221 12.4575 19.6969 12.5278C19.6728 12.1531 19.739 11.2221 20.4498 9.12589C21.2931 6.63153 21.2449 4.72271 20.2932 3.44626C19.2933 2.1054 17.6971 2 17.2272 2C16.7755 2 16.3599 2.18151 16.0647 2.51527C15.3961 3.2706 15.4744 4.66416 15.5588 5.30824C14.7637 7.38101 12.535 12.4634 10.6497 13.8745C10.6135 13.898 10.5834 13.9272 10.5533 13.9565C9.99912 14.5245 9.62567 15.1393 9.37268 15.678C9.0173 15.4906 8.61373 15.3852 8.18005 15.3852H4.50575C3.12036 15.3852 2 16.4801 2 17.821V27.3358C2 28.6826 3.12638 29.7716 4.50575 29.7716H8.18005C8.71613 29.7716 9.21608 29.6077 9.62567 29.3266L11.0412 29.4906C11.258 29.5199 15.113 29.9941 19.0704 29.918C19.7872 29.9707 20.4618 30 21.0883 30C22.1665 30 23.1061 29.918 23.8892 29.7541C25.7323 29.3735 26.9912 28.6123 27.6297 27.4939C28.1176 26.6391 28.1176 25.79 28.0393 25.2514C29.238 24.1974 29.4488 23.0322 29.4066 22.2125C29.3825 21.7382 29.2741 21.3342 29.1597 21.0355ZM4.50575 28.1907C4.01785 28.1907 3.62633 27.8043 3.62633 27.3358V17.8151C3.62633 17.3409 4.02387 16.9603 4.50575 16.9603H8.18005C8.66794 16.9603 9.05947 17.3467 9.05947 17.8151V27.33C9.05947 27.8043 8.66192 28.1849 8.18005 28.1849H4.50575V28.1907ZM27.6177 20.3505C27.3647 20.6081 27.3165 21.0004 27.5093 21.3049C27.5093 21.3107 27.7562 21.7206 27.7863 22.2827C27.8285 23.0498 27.449 23.729 26.6539 24.3087C26.3708 24.5194 26.2564 24.8825 26.3768 25.2104C26.3768 25.2162 26.6359 25.9891 26.2142 26.721C25.8106 27.4237 24.9132 27.9272 23.5519 28.2083C22.4616 28.4366 20.9798 28.4776 19.1608 28.3371C19.1367 28.3371 19.1066 28.3371 19.0764 28.3371C15.2034 28.4191 11.2881 27.9272 11.246 27.9214H11.24L10.6316 27.8511C10.6677 27.6872 10.6858 27.5115 10.6858 27.3358V17.8151C10.6858 17.5634 10.6436 17.3174 10.5713 17.0891C10.6798 16.6968 10.9809 15.8243 11.6917 15.0807C14.3962 12.9962 17.0405 5.96403 17.155 5.65956C17.2032 5.5366 17.2152 5.40192 17.1911 5.26725C17.0887 4.61146 17.1248 3.80928 17.2694 3.56922C17.5887 3.57507 18.45 3.6629 18.968 4.35968C19.5824 5.18528 19.5583 6.66081 18.8957 8.61648C17.8838 11.5968 17.7995 13.166 18.6006 13.857C18.9981 14.2024 19.5282 14.22 19.9137 14.0853C20.2811 14.0033 20.6305 13.9331 20.9618 13.8804C20.9859 13.8745 21.016 13.8687 21.0401 13.8628C22.8893 13.4705 26.2022 13.2304 27.3526 14.2493C28.3284 15.1159 27.6357 16.2635 27.5574 16.3864C27.3346 16.7143 27.4008 17.1418 27.702 17.4053C27.708 17.4111 28.3405 17.9908 28.3706 18.7696C28.3947 19.2907 28.1417 19.8235 27.6177 20.3505Z"/>
</symbol><symbol viewBox="0 0 32 32" id="link" xmlns="http://www.w3.org/2000/svg">
<path d="M23.8642 14.649C23.7336 14.7751 23.6294 14.926 23.5578 15.0928C23.4861 15.2597 23.4484 15.4391 23.4468 15.6207C23.4452 15.8022 23.4798 15.9823 23.5486 16.1504C23.6173 16.3184 23.7189 16.4711 23.8473 16.5995C23.9757 16.7279 24.1284 16.8294 24.2964 16.8982C24.4645 16.9669 24.6445 17.0015 24.8261 16.9999C25.0077 16.9984 25.1871 16.9606 25.3539 16.889C25.5208 16.8173 25.6717 16.7131 25.7978 16.5825L27.9092 14.4712C29.2597 13.0893 30.011 11.2307 29.9999 9.29843C29.9888 7.36622 29.2163 5.51629 27.85 4.14998C26.4837 2.78367 24.6338 2.01119 22.7016 2.00012C20.7693 1.98905 18.9107 2.74028 17.5288 4.09084L15.4175 6.20219C15.2869 6.32834 15.1827 6.47923 15.111 6.64606C15.0394 6.8129 15.0016 6.99233 15.0001 7.1739C14.9985 7.35547 15.0331 7.53554 15.1018 7.70359C15.1706 7.87165 15.2721 8.02433 15.4005 8.15272C15.5289 8.28112 15.6816 8.38265 15.8496 8.45141C16.0177 8.52017 16.1978 8.55477 16.3793 8.55319C16.5609 8.55161 16.7403 8.51389 16.9072 8.44222C17.074 8.37055 17.2249 8.26638 17.351 8.13577L19.4624 6.02442C19.8892 5.59292 20.3971 5.25002 20.9569 5.01546C21.5167 4.7809 22.1173 4.65929 22.7242 4.65763C23.3311 4.65597 23.9324 4.77429 24.4935 5.00579C25.0545 5.23728 25.5643 5.57739 25.9934 6.00656C26.4226 6.43573 26.7627 6.94549 26.9942 7.50654C27.2257 8.06759 27.344 8.66887 27.3424 9.2758C27.3407 9.88273 27.2191 10.4833 26.9845 11.0431C26.75 11.6029 26.4071 12.1108 25.9756 12.5376L23.8642 14.649Z"/>
<path d="M8.14955 17.3512C8.28045 17.2251 8.38486 17.0742 8.45669 16.9074C8.52851 16.7405 8.56632 16.5611 8.5679 16.3795C8.56949 16.1979 8.53481 16.0179 8.4659 15.8498C8.39699 15.6818 8.29522 15.5291 8.16654 15.4007C8.03786 15.2723 7.88483 15.1708 7.7164 15.102C7.54797 15.0333 7.3675 14.9987 7.18552 15.0002C7.00354 15.0018 6.8237 15.0395 6.6565 15.1112C6.48929 15.1829 6.33806 15.287 6.21163 15.4177L4.09554 17.529C2.74195 18.9109 1.98903 20.7695 2.00012 22.7017C2.01122 24.634 2.78543 26.4839 4.15481 27.8502C5.52418 29.2165 7.37827 29.989 9.31482 30.0001C11.2514 30.0111 13.1142 29.2599 14.4992 27.9093L16.6153 25.798C16.8649 25.5401 17.0031 25.1947 16.9999 24.8361C16.9968 24.4776 16.8527 24.1346 16.5986 23.8811C16.3445 23.6275 16.0007 23.4837 15.6414 23.4806C15.282 23.4775 14.9358 23.6153 14.6774 23.8644L12.5613 25.9758C11.694 26.8317 10.5224 27.3103 9.30259 27.3069C8.08275 27.3036 6.91383 26.8186 6.05127 25.958C5.18871 25.0974 4.70265 23.9311 4.69931 22.714C4.69598 21.4968 5.17563 20.3279 6.03346 19.4626L8.14955 17.3512Z"/>
<path d="M10.4326 21.5714C10.7071 21.8459 11.0795 22.0002 11.4677 22.0002C11.856 22.0002 12.2284 21.8459 12.5029 21.5714L21.5532 12.5183C21.693 12.3832 21.8046 12.2216 21.8813 12.0429C21.958 11.8642 21.9984 11.672 22.0001 11.4776C22.0018 11.2831 21.9648 11.0902 21.8911 10.9102C21.8175 10.7302 21.7088 10.5667 21.5713 10.4292C21.4338 10.2916 21.2704 10.1829 21.0904 10.1093C20.9105 10.0356 20.7177 9.99855 20.5233 10.0002C20.3288 10.0019 20.1367 10.0423 19.9581 10.1191C19.7794 10.1959 19.6179 10.3074 19.4828 10.4473L10.4326 19.493C10.2955 19.6291 10.1868 19.791 10.1126 19.9694C10.0384 20.1477 10.0002 20.339 10.0002 20.5322C10.0002 20.7254 10.0384 20.9166 10.1126 21.095C10.1868 21.2733 10.2955 21.4352 10.4326 21.5714Z"/>
</symbol><symbol viewBox="0 0 32 32" fill="none" id="list" xmlns="http://www.w3.org/2000/svg">
<path d="M12.4854 7.24173H29.1796C29.6327 7.24173 30 6.87784 30 6.429C30 5.98016 29.6327 5.61627 29.1796 5.61627H12.4854C12.0323 5.61627 11.665 5.98016 11.665 6.429C11.665 6.87784 12.0323 7.24173 12.4854 7.24173Z" fill="currentColor"/>
<path d="M29.1796 15.1914H12.4854C12.0323 15.1914 11.665 15.5553 11.665 16.0041C11.665 16.453 12.0323 16.8169 12.4854 16.8169H29.1796C29.6327 16.8169 30 16.453 30 16.0041C30 15.5553 29.6327 15.1914 29.1796 15.1914Z" fill="currentColor"/>
<path d="M29.1796 24.7671H12.4854C12.0323 24.7671 11.665 25.131 11.665 25.5798C11.665 26.0287 12.0323 26.3925 12.4854 26.3925H29.1796C29.6327 26.3925 30 26.0287 30 25.5798C30 25.131 29.6327 24.7671 29.1796 24.7671Z" fill="currentColor"/>
<path d="M5.45625 3.00439C3.55045 3.00439 2 4.5405 2 6.42868C2 8.31686 3.5505 9.85297 5.45625 9.85297C7.362 9.85297 8.9125 8.31681 8.9125 6.42868C8.9125 4.54056 7.36205 3.00439 5.45625 3.00439ZM5.45625 8.22752C4.45509 8.22752 3.64062 7.42054 3.64062 6.42868C3.64062 5.43683 4.45514 4.62985 5.45625 4.62985C6.45736 4.62985 7.27187 5.43678 7.27187 6.42868C7.27187 7.42059 6.45741 8.22752 5.45625 8.22752Z" fill="currentColor"/>
<path d="M5.45625 12.5801C3.5505 12.5801 2 14.1162 2 16.0044C2 17.8925 3.5505 19.4287 5.45625 19.4287C7.362 19.4287 8.9125 17.8925 8.9125 16.0044C8.9125 14.1162 7.36205 12.5801 5.45625 12.5801ZM5.45625 17.8032C4.45514 17.8032 3.64062 16.9963 3.64062 16.0044C3.64062 15.0125 4.45514 14.2055 5.45625 14.2055C6.45736 14.2055 7.27187 15.0125 7.27187 16.0044C7.27187 16.9962 6.45741 17.8032 5.45625 17.8032Z" fill="currentColor"/>
<path d="M5.45625 22.1562C3.55045 22.1562 2 23.6924 2 25.5805C2 27.4686 3.5505 29.0048 5.45625 29.0048C7.362 29.0048 8.9125 27.4687 8.9125 25.5805C8.9125 23.6923 7.36205 22.1562 5.45625 22.1562ZM5.45625 27.3793C4.45509 27.3793 3.64062 26.5724 3.64062 25.5805C3.64062 24.5886 4.45514 23.7816 5.45625 23.7816C6.45736 23.7816 7.27187 24.5886 7.27187 25.5805C7.27187 26.5723 6.45741 27.3793 5.45625 27.3793Z" fill="currentColor"/>
</symbol><symbol viewBox="0 0 32 32" id="location" xmlns="http://www.w3.org/2000/svg">
<path d="M15.9959 18.8183C13.2709 18.8183 11.0448 16.5663 11.0448 13.7806C11.0448 10.9949 13.2709 8.75598 15.9959 8.75598C18.7209 8.75598 20.947 11.008 20.947 13.7936C20.947 16.5793 18.7209 18.8183 15.9959 18.8183ZM15.9959 10.7086C14.3328 10.7086 12.9638 12.0884 12.9638 13.7936C12.9638 15.4989 14.32 16.8787 15.9959 16.8787C17.6719 16.8787 19.028 15.4989 19.028 13.7936C19.028 12.0884 17.6591 10.7086 15.9959 10.7086Z"/>
<path d="M15.996 30C14.1026 30 12.1964 29.271 10.7123 27.8261C6.93822 24.1292 2.76752 18.2325 4.34113 11.2162C5.76121 4.85077 11.2241 2 15.996 2C15.996 2 15.996 2 16.0088 2C20.7808 2 26.2437 4.85077 27.6638 11.2292C29.2246 18.2455 25.0539 24.1292 21.2798 27.8261C19.7957 29.271 17.8895 30 15.996 30ZM15.996 3.95258C12.2731 3.95258 7.48834 5.97025 6.22178 11.6457C4.84008 17.7768 8.62697 23.0618 12.0556 26.4073C14.2689 28.5811 17.736 28.5811 19.9493 26.4073C23.3651 23.0618 27.152 17.7768 25.7959 11.6457C24.5165 5.97025 19.719 3.95258 15.996 3.95258Z"/>
</symbol><symbol viewBox="0 0 32 32" id="lock" xmlns="http://www.w3.org/2000/svg">
<path d="M23.0538 11.27H11.3534V8.75C11.3534 6.13 13.4547 4 16.0395 4C17.9336 4 19.6206 5.14 20.3605 6.9C20.5776 7.41 21.1498 7.65 21.6529 7.43C22.1561 7.22 22.3928 6.63 22.1758 6.12C21.13 3.62 18.7229 2 16.0395 2C12.3695 2 9.38027 5.03 9.38027 8.75V11.27H8.94619C6.76592 11.27 5 13.06 5 15.27V26C5 28.21 6.76592 30 8.94619 30H23.0538C25.2341 30 27 28.21 27 26V15.27C27 13.07 25.2341 11.27 23.0538 11.27ZM25.0269 26C25.0269 27.1 24.139 28 23.0538 28H8.94619C7.86099 28 6.97309 27.1 6.97309 26V15.27C6.97309 14.17 7.86099 13.27 8.94619 13.27H23.0538C24.139 13.27 25.0269 14.17 25.0269 15.27V26ZM17.7758 20.35C17.7758 20.97 17.4601 21.53 16.9865 21.85V24.3C16.9865 24.85 16.5426 25.3 16 25.3C15.4574 25.3 15.0135 24.85 15.0135 24.3V21.85C14.5399 21.53 14.2242 20.97 14.2242 20.35C14.2242 19.36 15.0233 18.55 16 18.55C16.9767 18.55 17.7758 19.35 17.7758 20.35Z"/>
</symbol><symbol viewBox="0 0 32 32" id="long-arrow" xmlns="http://www.w3.org/2000/svg">
<path fill-rule="evenodd" clip-rule="evenodd" d="M23.3431 9.27842L29.7071 15.3278C30.0976 15.6991 30.0976 16.3009 29.7071 16.6722L23.3431 22.7216C22.9526 23.0928 22.3195 23.0928 21.9289 22.7216C21.5384 22.3504 21.5384 21.7485 21.9289 21.3773L26.5858 16.9506H2.95057C2.42559 16.9506 2 16.525 2 16C2 15.475 2.42559 15.0494 2.95057 15.0494H26.5858L21.9289 10.6227C21.5384 10.2515 21.5384 9.64964 21.9289 9.27842C22.3195 8.90719 22.9526 8.90719 23.3431 9.27842Z"/>
</symbol><symbol viewBox="0 0 32 32" id="mail" xmlns="http://www.w3.org/2000/svg">
<path d="M22.5116 28H9.48837C4.73488 28 2 25.2757 2 20.5405V11.4595C2 6.72432 4.73488 4 9.48837 4H22.5116C27.2651 4 30 6.72432 30 11.4595V20.5405C30 25.2757 27.2651 28 22.5116 28ZM9.48837 5.94595C5.76372 5.94595 3.95349 7.74919 3.95349 11.4595V20.5405C3.95349 24.2508 5.76372 26.0541 9.48837 26.0541H22.5116C26.2363 26.0541 28.0465 24.2508 28.0465 20.5405V11.4595C28.0465 7.74919 26.2363 5.94595 22.5116 5.94595H9.48837Z"/>
<path d="M15.9997 17.1284C14.9058 17.1284 13.7988 16.7912 12.9523 16.1036L8.87599 12.8604C8.45924 12.5231 8.38111 11.9133 8.71972 11.4982C9.05832 11.083 9.67042 11.0052 10.0872 11.3425L14.1634 14.5858C15.1532 15.3771 16.8332 15.3771 17.823 14.5858L21.8992 11.3425C22.316 11.0052 22.9411 11.0701 23.2667 11.4982C23.6053 11.9133 23.5402 12.536 23.1104 12.8604L19.0341 16.1036C18.2006 16.7912 17.0937 17.1284 15.9997 17.1284Z"/>
</symbol><symbol viewBox="0 0 32 32" id="menu" xmlns="http://www.w3.org/2000/svg">
<path d="M12 6C12 5.44772 12.4477 5 13 5H29C29.5523 5 30 5.44772 30 6C30 6.55228 29.5523 7 29 7H13C12.4477 7 12 6.55228 12 6Z"/>
<path d="M2 16C2 15.4477 2.44772 15 3 15H29C29.5523 15 30 15.4477 30 16C30 16.5523 29.5523 17 29 17H3C2.44771 17 2 16.5523 2 16Z"/>
<path d="M2 26C2 25.4477 2.44772 25 3 25H21C21.5523 25 22 25.4477 22 26C22 26.5523 21.5523 27 21 27H3C2.44772 27 2 26.5523 2 26Z"/>
</symbol><symbol viewBox="0 0 32 32" fill="none" id="minus" xmlns="http://www.w3.org/2000/svg">
<path d="M3.37291 15C3.00605 15.0057 2.65692 15.1136 2.40031 15.3005C2.1437 15.4874 2 15.7385 2 16C2 16.2615 2.1437 16.5125 2.40031 16.6994C2.65692 16.8863 3.00605 16.9943 3.37291 17H28.6271C28.9939 16.9943 29.3431 16.8863 29.5997 16.6994C29.8563 16.5125 30 16.2615 30 16C30 15.7385 29.8563 15.4874 29.5997 15.3005C29.3431 15.1136 28.9939 15.0057 28.6271 15H3.37291Z" fill="currentColor"/>
</symbol><symbol viewBox="0 0 32 32" fill="none" id="play" xmlns="http://www.w3.org/2000/svg">
<path fill-rule="evenodd" clip-rule="evenodd" d="M16 28C22.6274 28 28 22.6274 28 16C28 9.37258 22.6274 4 16 4C9.37258 4 4 9.37258 4 16C4 22.6274 9.37258 28 16 28ZM16 30C23.732 30 30 23.732 30 16C30 8.26801 23.732 2 16 2C8.26801 2 2 8.26801 2 16C2 23.732 8.26801 30 16 30Z" fill="currentColor"/>
<path d="M20 16L13 20L13 12L20 16Z" fill="currentColor"/>
</symbol><symbol viewBox="0 0 32 32" fill="none" id="plus" xmlns="http://www.w3.org/2000/svg">
<path d="M16 30C15.6374 30 15.2896 29.856 15.0332 29.5996C14.7768 29.3432 14.6328 28.9954 14.6328 28.6328V3.36719C14.6328 3.00459 14.7768 2.65684 15.0332 2.40044C15.2896 2.14404 15.6374 2 16 2C16.3626 2 16.7103 2.14404 16.9667 2.40044C17.2231 2.65684 17.3672 3.00459 17.3672 3.36719V28.6328C17.3672 28.9954 17.2231 29.3432 16.9667 29.5996C16.7103 29.856 16.3626 30 16 30Z" fill="currentColor"/>
<path d="M28.6328 17.3671H3.36719C3.00459 17.3671 2.65684 17.2231 2.40044 16.9667C2.14404 16.7103 2 16.3625 2 15.9999C2 15.6373 2.14404 15.2896 2.40044 15.0332C2.65684 14.7768 3.00459 14.6328 3.36719 14.6328H28.6328C28.9954 14.6328 29.3432 14.7768 29.5996 15.0332C29.856 15.2896 30 15.6373 30 15.9999C30 16.3625 29.856 16.7103 29.5996 16.9667C29.3432 17.2231 28.9954 17.3671 28.6328 17.3671Z" fill="currentColor"/>
</symbol><symbol viewBox="0 0 32 32" id="price" xmlns="http://www.w3.org/2000/svg">
<path d="M23.3536 21.1915H20.2804V17.7928C22.8023 16.3212 24.5 13.5918 24.5 10.4742C24.4999 5.80147 20.6869 2 16 2C11.3131 2 7.5 5.80147 7.5 10.4742C7.5 13.5919 9.19768 16.3212 11.7196 17.7929V21.1916H8.64644C8.3118 21.1916 8.01047 21.3935 7.88414 21.7025C7.75781 22.0114 7.83173 22.3658 8.071 22.5991L15.4246 29.7662C15.5845 29.9221 15.7922 30 15.9999 30C16.2077 30 16.4154 29.922 16.5753 29.7662L23.9289 22.5991C24.1682 22.3658 24.2421 22.0115 24.1157 21.7025C23.9895 21.3935 23.6881 21.1915 23.3536 21.1915ZM9.14632 10.4742C9.14632 6.7065 12.2208 3.64132 16 3.64132C19.7792 3.64132 22.8537 6.7065 22.8537 10.4742C22.8537 14.2419 19.7792 17.3071 16 17.3071C12.2208 17.3071 9.14632 14.2419 9.14632 10.4742ZM16 28.0317L10.666 22.8329H12.5427C12.9973 22.8329 13.3659 22.4654 13.3659 22.0122V18.5314C14.1956 18.8016 15.0809 18.9484 16 18.9484C16.9191 18.9484 17.8044 18.8016 18.6341 18.5314V22.0122C18.6341 22.4654 19.0027 22.8329 19.4573 22.8329H21.334L16 28.0317Z"/>
<path d="M15.92 9.56471C15.0678 9.25073 14.9266 9.04578 14.9296 8.69842C14.9357 8.02099 15.6147 7.94916 15.9051 7.95222C16.3325 7.95408 17.0107 8.15449 17.0107 8.6842C17.0107 9.13742 17.3792 9.50486 17.8339 9.50486C18.2885 9.50486 18.657 9.13742 18.657 8.6842C18.657 7.48226 17.7882 6.71029 16.772 6.42973V5.83043C16.772 5.3772 16.4034 5.00977 15.9488 5.00977C15.4942 5.00977 15.1257 5.3772 15.1257 5.83043V6.40642C14.7699 6.4962 14.4442 6.6477 14.1713 6.85582C13.6053 7.28743 13.29 7.93657 13.2833 8.68376C13.2682 10.3728 14.7778 10.9044 15.5033 11.1599"/>
<path d="M15.5042 11.1606C16.6476 11.5515 17.0751 11.7896 17.0712 12.2249C17.0652 12.8964 16.3989 12.9712 16.1035 12.9712C16.1009 12.9712 16.0983 12.9712 16.0957 12.9712C15.6682 12.9693 14.9901 12.7689 14.9901 12.2392C14.9901 11.786 14.6215 11.4185 14.1669 11.4185C13.7123 11.4185 13.3438 11.786 13.3438 12.2392C13.3438 13.4412 14.2125 14.2132 15.2288 14.4937V15.118C15.2288 15.5713 15.5974 15.9387 16.052 15.9387C16.5066 15.9387 16.8752 15.5713 16.8752 15.118V14.5176C17.2308 14.4276 17.5568 14.2755 17.8295 14.0676C18.3955 13.636 18.7109 12.9868 18.7176 12.2396C18.7329 10.527 16.9216 9.90765 15.9208 9.56543"/>
</symbol><symbol viewBox="0 0 32 32" id="profile" xmlns="http://www.w3.org/2000/svg">
<path d="M24.4407 16.1951C24.3394 16.0929 24.2186 16.0117 24.0852 15.9561C23.9518 15.9005 23.8086 15.8717 23.6638 15.8713C23.5191 15.8709 23.3757 15.899 23.242 15.9538C23.1083 16.0087 22.987 16.0893 22.8852 16.1909C22.7834 16.2925 22.7031 16.4131 22.649 16.5457C22.5949 16.6782 22.5681 16.8201 22.5701 16.963C22.572 17.1059 22.6028 17.247 22.6606 17.378C22.7184 17.5091 22.802 17.6275 22.9066 17.7263C23.8322 18.6253 24.5664 19.6979 25.0664 20.8809C25.5664 22.0639 25.822 23.3336 25.8181 24.6154C25.8181 25.9326 21.9935 27.8462 16 27.8462C10.0065 27.8462 6.18186 25.9316 6.18186 24.6132C6.17819 23.3402 6.43034 22.0791 6.92372 20.9029C7.41709 19.7267 8.1419 18.6588 9.05617 17.7611C9.15958 17.6615 9.24194 17.5427 9.29848 17.4115C9.35501 17.2803 9.38459 17.1394 9.38551 16.9968C9.38642 16.8542 9.35865 16.7129 9.30381 16.581C9.24896 16.4491 9.16813 16.3293 9.06601 16.2285C8.96389 16.1276 8.84251 16.0479 8.7089 15.9937C8.5753 15.9396 8.43213 15.9122 8.28771 15.9131C8.14329 15.914 8.00049 15.9432 7.86759 15.999C7.7347 16.0548 7.61435 16.1361 7.51353 16.2382C6.39581 17.3358 5.50976 18.6413 4.90666 20.0793C4.30357 21.5173 3.99542 23.0591 4.00005 24.6154C4.00005 28.1128 10.1822 30 16 30C21.8178 30 27.9999 28.1128 27.9999 24.6154C28.0048 23.0486 27.6924 21.4966 27.0812 20.0506C26.47 18.6046 25.5722 17.2938 24.4407 16.1951Z"/>
<path d="M15.9996 17.077C17.5099 17.077 18.9863 16.6349 20.2421 15.8065C21.4979 14.9782 22.4767 13.8008 23.0547 12.4234C23.6326 11.0459 23.7839 9.53014 23.4892 8.06782C23.1946 6.60549 22.4673 5.26226 21.3993 4.20798C20.3314 3.1537 18.9707 2.43573 17.4894 2.14485C16.0081 1.85398 14.4727 2.00327 13.0773 2.57384C11.682 3.14441 10.4893 4.11064 9.65023 5.35034C8.81114 6.59004 8.36328 8.04753 8.36328 9.53851C8.36562 11.5371 9.17091 13.4532 10.6025 14.8665C12.0341 16.2797 13.975 17.0747 15.9996 17.077ZM15.9996 4.15386C17.0784 4.15386 18.133 4.46967 19.03 5.06134C19.927 5.65301 20.6261 6.49398 21.0389 7.47789C21.4518 8.46181 21.5598 9.54448 21.3493 10.589C21.1389 11.6335 20.6194 12.593 19.8565 13.346C19.0937 14.0991 18.1218 14.6119 17.0637 14.8197C16.0057 15.0275 14.9089 14.9208 13.9123 14.5133C12.9156 14.1057 12.0637 13.4156 11.4643 12.5301C10.865 11.6446 10.5451 10.6035 10.5451 9.53851C10.5468 8.11093 11.122 6.7423 12.1446 5.73284C13.1671 4.72339 14.5535 4.15554 15.9996 4.15386Z"/>
</symbol><symbol viewBox="0 0 32 32" id="quality" xmlns="http://www.w3.org/2000/svg">
<path d="M22.0893 30C21.75 30.001 21.4167 29.9108 21.124 29.7388C20.8313 29.5668 20.5899 29.3193 20.4249 29.022L17.1872 23.4016C17.0579 23.1768 17.0229 22.9097 17.09 22.6591C17.157 22.4084 17.3206 22.1947 17.5448 22.065C17.7689 21.9353 18.0353 21.9002 18.2852 21.9675C18.5352 22.0348 18.7483 22.1988 18.8776 22.4236L22.1153 28.044L22.9215 26.0618C23.0885 25.6806 23.3733 25.3633 23.7339 25.1567C24.0944 24.9501 24.5116 24.8651 24.9239 24.9143L27.0563 25.1751L23.1555 18.4333C23.0915 18.322 23.0499 18.1991 23.0332 18.0717C23.0166 17.9443 23.0251 17.8149 23.0583 17.6907C23.0915 17.5666 23.1487 17.4503 23.2268 17.3484C23.3048 17.2464 23.4021 17.1609 23.5131 17.0967C23.6241 17.0325 23.7466 16.9908 23.8736 16.9741C24.0007 16.9574 24.1298 16.9659 24.2535 16.9992C24.3773 17.0325 24.4933 17.0899 24.5949 17.1682C24.6966 17.2464 24.7818 17.344 24.8459 17.4553L28.7467 24.2101C28.9237 24.5236 29.0109 24.88 28.9988 25.24C28.9866 25.6 28.8756 25.9497 28.6779 26.2504C28.4802 26.5512 28.2036 26.7914 27.8784 26.9445C27.5533 27.0976 27.1923 27.1577 26.8353 27.1181L24.7028 26.8443L23.8837 28.8133C23.743 29.1488 23.5111 29.4379 23.2146 29.6477C22.918 29.8575 22.5686 29.9796 22.2063 30H22.0893Z"/>
<path d="M9.8661 30H9.76208C9.39972 29.9796 9.05037 29.8575 8.75381 29.6477C8.45725 29.4379 8.22541 29.1488 8.08471 28.8133L7.23953 26.8312L5.13308 27.1051C4.77699 27.152 4.41492 27.0974 4.08836 26.9475C3.76179 26.7976 3.48395 26.5584 3.28668 26.2574C3.09923 25.9515 3 25.5994 3 25.2403C3 24.8812 3.09923 24.5291 3.28668 24.2232L7.18752 17.4553C7.31684 17.2305 7.52991 17.0664 7.77986 16.9992C8.0298 16.9319 8.29615 16.967 8.52031 17.0967C8.74446 17.2264 8.90807 17.4401 8.97513 17.6907C9.04218 17.9414 9.00721 18.2085 8.87788 18.4333L4.97704 25.1882L7.0965 24.9143C7.50934 24.8608 7.92831 24.944 8.28974 25.1511C8.65116 25.3582 8.93529 25.678 9.09893 26.0618L9.94411 28.044L13.1168 22.4236C13.2461 22.1988 13.4592 22.0348 13.7091 21.9675C13.9591 21.9003 14.2254 21.9353 14.4496 22.065C14.6737 22.1947 14.8373 22.4084 14.9044 22.6591C14.9715 22.9097 14.9365 23.1768 14.8072 23.4016L11.5305 29.022C11.3655 29.3193 11.1241 29.5668 10.8314 29.7388C10.5387 29.9108 10.2053 30.001 9.8661 30Z"/>
<path d="M15.9783 24.9924C15.1119 24.9932 14.2802 24.6511 13.6638 24.0405L12.5196 22.893C12.3992 22.7697 12.2556 22.6717 12.0971 22.6046C11.9386 22.5374 11.7684 22.5025 11.5964 22.5018H10.2961C9.43157 22.4983 8.60342 22.1524 7.9921 21.5393C7.38078 20.9262 7.03583 20.0957 7.0324 19.2287V17.9246C7.03544 17.7415 6.99996 17.5597 6.92827 17.3912C6.85658 17.2227 6.75028 17.0712 6.61631 16.9466L5.45906 15.7991C4.85023 15.1809 4.50913 14.3468 4.50986 13.4779C4.50667 13.0503 4.58774 12.6263 4.7484 12.2302C4.90906 11.8341 5.14615 11.4738 5.44606 11.1698L6.61631 10.0092C6.73682 9.8874 6.83217 9.74289 6.89687 9.58401C6.96158 9.42513 6.99438 9.25501 6.99339 9.08339V7.77937C6.98824 7.34673 7.06834 6.91734 7.22907 6.51582C7.38981 6.11431 7.62803 5.74858 7.93006 5.43962C8.23209 5.13067 8.59198 4.88457 8.98908 4.71545C9.38619 4.54633 9.81268 4.45752 10.2441 4.45412H11.5444C11.7155 4.45511 11.8851 4.42222 12.0436 4.35732C12.202 4.29243 12.3461 4.19681 12.4676 4.07595L13.6638 2.94145C14.289 2.33746 15.1233 2 15.9913 2C16.8594 2 17.6937 2.33746 18.3188 2.94145L19.4631 4.08899C19.5846 4.20985 19.7287 4.30547 19.8871 4.37036C20.0455 4.43526 20.2152 4.46815 20.3863 4.46716H21.6866C22.5534 4.47061 23.3835 4.81835 23.9951 5.43424C24.6068 6.05014 24.9503 6.88401 24.9503 7.75329V9.05731C24.9493 9.22893 24.9821 9.39905 25.0468 9.55793C25.1115 9.71681 25.2068 9.86132 25.3274 9.98316L26.4846 11.1437C27.0905 11.7609 27.4301 12.5923 27.4301 13.4584C27.4301 14.3245 27.0905 15.1558 26.4846 15.773L25.3274 16.9206C25.2053 17.0439 25.109 17.1906 25.0443 17.3518C24.9795 17.513 24.9476 17.6856 24.9503 17.8594V19.1635C24.9572 19.5961 24.8788 20.0258 24.7196 20.428C24.5605 20.8302 24.3237 21.1969 24.0229 21.5071C23.722 21.8172 23.3631 22.0648 22.9666 22.2355C22.5702 22.4062 22.144 22.4967 21.7126 22.5018H20.4123C20.2403 22.5025 20.0701 22.5374 19.9116 22.6046C19.7531 22.6717 19.6095 22.7697 19.4891 22.893L18.3448 24.0405C18.0334 24.3491 17.6637 24.5923 17.2573 24.7558C16.8509 24.9192 16.4161 24.9997 15.9783 24.9924ZM10.2441 6.41015C9.89924 6.41015 9.56851 6.54754 9.32466 6.79209C9.08081 7.03664 8.94381 7.36832 8.94381 7.71417V9.01819C8.94529 9.4467 8.86217 9.87126 8.69926 10.2674C8.53635 10.6635 8.29686 11.0234 7.99461 11.3263L6.85036 12.4869C6.7275 12.6077 6.62976 12.7517 6.5628 12.9106C6.49584 13.0695 6.46099 13.2402 6.46028 13.4127C6.45926 13.5875 6.49327 13.7606 6.56028 13.9219C6.62729 14.0832 6.72593 14.2293 6.85036 14.3516L7.99461 15.4992C8.29843 15.8036 8.53881 16.1656 8.70177 16.5641C8.86473 16.9626 8.94701 17.3896 8.94381 17.8203V19.1243C8.94381 19.4702 9.08081 19.8019 9.32466 20.0464C9.56851 20.291 9.89924 20.4284 10.2441 20.4284H11.5444C11.9729 20.4264 12.3974 20.5108 12.7928 20.6766C13.1881 20.8423 13.5463 21.0861 13.8459 21.3933L14.9901 22.5409C15.2434 22.7802 15.5783 22.9135 15.9263 22.9135C16.2743 22.9135 16.6092 22.7802 16.8625 22.5409L18.0068 21.3933C18.3064 21.0861 18.6645 20.8423 19.0599 20.6766C19.4552 20.5108 19.8798 20.4264 20.3083 20.4284H21.6086C21.9534 20.4284 22.2841 20.291 22.528 20.0464C22.7718 19.8019 22.9088 19.4702 22.9088 19.1243V17.8203C22.9056 17.3896 22.9879 16.9626 23.1509 16.5641C23.3138 16.1656 23.5542 15.8036 23.858 15.4992L25.0153 14.3516C25.1391 14.2302 25.2375 14.0852 25.3047 13.925C25.3719 13.7649 25.4065 13.593 25.4065 13.4193C25.4065 13.2455 25.3719 13.0736 25.3047 12.9135C25.2375 12.7534 25.1391 12.6083 25.0153 12.4869L23.858 11.3263C23.5558 11.0234 23.3163 10.6635 23.1534 10.2674C22.9905 9.87126 22.9074 9.4467 22.9088 9.01819V7.71417C22.9088 7.36832 22.7718 7.03664 22.528 6.79209C22.2841 6.54754 21.9534 6.41015 21.6086 6.41015H20.3083C19.881 6.41163 19.4576 6.32827 19.0626 6.16489C18.6676 6.00151 18.3088 5.76134 18.0068 5.45821L16.8625 4.31068C16.7412 4.18447 16.5958 4.08408 16.435 4.01552C16.2741 3.94695 16.1011 3.91161 15.9263 3.91161C15.7515 3.91161 15.5786 3.94695 15.4177 4.01552C15.2568 4.08408 15.1114 4.18447 14.9901 4.31068L13.8459 5.45821C13.5439 5.76134 13.185 6.00151 12.79 6.16489C12.395 6.32827 11.9717 6.41163 11.5444 6.41015H10.2441Z"/>
<path d="M15.1185 16.5298C14.8565 16.5275 14.6053 16.4248 14.4163 16.2429L12.2579 14.0652C12.0752 13.8818 11.9727 13.6332 11.9727 13.3741C11.9727 13.1149 12.0752 12.8663 12.2579 12.6829C12.4445 12.5021 12.694 12.401 12.9535 12.401C13.2131 12.401 13.4625 12.5021 13.6492 12.6829L15.1185 14.1695L18.7593 10.5052C18.9459 10.3244 19.1954 10.2233 19.4549 10.2233C19.7145 10.2233 19.9639 10.3244 20.1506 10.5052C20.3332 10.6886 20.4358 10.9372 20.4358 11.1963C20.4358 11.4555 20.3332 11.7041 20.1506 11.8875L15.8076 16.2429C15.6234 16.424 15.3765 16.5268 15.1185 16.5298Z"/>
</symbol><symbol viewBox="0 0 32 32" id="reload" xmlns="http://www.w3.org/2000/svg">
<path d="M29.0053 5.86251C28.4037 5.80766 27.8716 6.2509 27.8168 6.85246L27.6718 8.44217C25.2132 4.58091 20.9451 2 15.9998 2C10.6798 2 5.99136 5.03635 3.66398 9.59356C3.38923 10.1315 3.60262 10.7903 4.14058 11.0651C4.67865 11.3398 5.33736 11.1265 5.61211 10.5885C7.58178 6.73171 11.5372 4.18749 15.9998 4.18749C20.0673 4.18749 23.738 6.30559 25.841 9.62386L24.2814 8.51004C23.7899 8.159 23.1068 8.27286 22.7557 8.76439C22.4047 9.25597 22.5185 9.93902 23.0101 10.2901L27.7392 13.6677C28.4323 14.1618 29.3883 13.7094 29.4641 12.8769L29.9951 7.05109C30.05 6.44947 29.6068 5.91736 29.0053 5.86251Z"/>
<path d="M27.8591 20.9349C27.3211 20.6602 26.6624 20.8735 26.3876 21.4115C24.4179 25.2683 20.4626 27.8125 15.9999 27.8125C11.9324 27.8125 8.2617 25.6944 6.15875 22.3761L7.71827 23.4899C8.20985 23.841 8.8929 23.7271 9.24399 23.2356C9.59503 22.744 9.48117 22.061 8.98964 21.7099L4.26055 18.3323C3.57592 17.8432 2.61222 18.282 2.53566 19.123L2.00459 24.9489C1.94974 25.5505 2.39298 26.0826 2.99448 26.1374C3.59681 26.1922 4.12821 25.7485 4.183 25.1475L4.32793 23.5578C6.78656 27.4191 11.0546 30 15.9999 30C21.3199 30 26.0083 26.9636 28.3357 22.4064C28.6105 21.8685 28.3971 21.2096 27.8591 20.9349Z"/>
</symbol><symbol viewBox="0 0 32 32" id="reply" xmlns="http://www.w3.org/2000/svg">
<path d="M16.8752 21.4997L19.5003 21.4997L19.5003 26.0829C19.5003 26.4624 19.7225 26.8015 20.0585 26.939C20.3945 27.0747 20.7778 26.9794 21.0228 26.6989L29.7729 16.6158C30.0757 16.2675 30.0757 15.734 29.7729 15.3839L21.0228 5.30086C20.853 5.10653 20.6168 5.0002 20.3753 5.0002C20.2685 5.0002 20.1618 5.02037 20.0585 5.0607C19.7225 5.1982 19.5003 5.53735 19.5003 5.91684L19.5003 10.5L17.066 10.5C12.0714 10.5 7.23433 8.62643 3.44377 5.2202C3.18651 4.98737 2.81726 4.93421 2.50925 5.08454C2.19775 5.23303 2 5.55936 2 5.91684C2 14.5094 8.67285 21.4997 16.8752 21.4997ZM17.066 12.3333L20.3753 12.3333C20.8583 12.3333 21.2503 11.9227 21.2503 11.4167L21.2503 8.28727L27.9424 15.9999L21.2503 23.7125L21.2503 20.5831C21.2503 20.0771 20.8583 19.6664 20.3753 19.6664L16.8752 19.6664C13.3699 19.6664 10.0729 18.2365 7.59484 15.6405C5.57005 13.5194 4.28728 10.8264 3.88653 7.91145C7.71909 10.775 12.3269 12.3333 17.066 12.3333Z"/>
</symbol><symbol viewBox="0 0 32 32" id="review" xmlns="http://www.w3.org/2000/svg">
<path d="M16 2C23.7233 2 30 8.27667 30 16C30 23.7233 23.7233 30 16 30H2V16C2 8.27667 8.27667 2 16 2ZM4 28H16C22.4283 28 28 22.4283 28 16C28 9.57167 22.4283 4 16 4C9.57167 4 4 9.57167 4 16V28Z"/>
<path d="M23 13C23 12.4477 22.5523 12 22 12H10C9.44772 12 9 12.4477 9 13C9 13.5523 9.44772 14 10 14H22C22.5523 14 23 13.5523 23 13Z"/>
<path d="M23 19C23 18.4477 22.5523 18 22 18H10C9.44772 18 9 18.4477 9 19C9 19.5523 9.44772 20 10 20H22C22.5523 20 23 19.5523 23 19Z"/>
</symbol><symbol viewBox="0 0 32 32" id="sale-line" xmlns="http://www.w3.org/2000/svg">
<path d="M29.4139 14.4948L27.5047 12.4322C27.4317 12.3532 27.3769 12.2579 27.3444 12.1536C27.3118 12.0492 27.3024 11.9385 27.3168 11.8298L27.7001 8.99135C27.8576 7.82747 27.1113 6.75739 26.0026 6.55494L23.2965 6.05976C23.1927 6.0405 23.0945 5.99682 23.0094 5.93204C22.9242 5.86726 22.8543 5.78308 22.805 5.68589L21.5192 3.15499C20.9912 2.11527 19.7838 1.70614 18.7711 2.22386L16.3042 3.48366C16.2094 3.53171 16.1054 3.55667 16 3.55667C15.8946 3.55667 15.7906 3.53171 15.6958 3.48366L13.2289 2.22386C12.2156 1.70608 11.0095 2.11521 10.4808 3.15499L9.19503 5.68589C9.09495 5.88481 8.91514 6.02027 8.70355 6.05976L5.99805 6.55494C4.88866 6.75665 4.143 7.82747 4.3005 8.99061L4.68315 11.8298C4.7129 12.0513 4.6453 12.2713 4.49524 12.4322L2.5861 14.4947C2.21028 14.8977 2 15.4377 2 16C2 16.5623 2.21028 17.1023 2.5861 17.5053L4.49524 19.5678C4.56822 19.6468 4.62305 19.7421 4.6556 19.8465C4.68815 19.9508 4.69757 20.0615 4.68315 20.1702L4.29984 23.0087C4.14234 24.1726 4.88866 25.2426 5.99734 25.4451L8.7035 25.9403C8.80726 25.9595 8.90545 26.0032 8.99061 26.068C9.07577 26.1328 9.14566 26.217 9.19497 26.3141L10.4808 28.845C11.0094 29.8848 12.2162 30.2939 13.2289 29.7762L15.6957 28.5164C15.7905 28.4683 15.8946 28.4434 16 28.4434C16.1054 28.4434 16.2094 28.4683 16.3042 28.5164L18.771 29.7762C19.0678 29.9278 19.3808 29.9998 19.6891 29.9998C20.4327 29.9998 21.1459 29.5801 21.5191 28.8451L22.8049 26.3142C22.905 26.1153 23.0848 25.9799 23.2964 25.9403L26.0019 25.4452C27.1112 25.2434 27.8569 24.1726 27.6994 23.0095L27.3167 20.1703C27.287 19.9488 27.3545 19.7288 27.5046 19.5679L29.4138 17.5054C29.7896 17.1025 30 16.5624 30 16.0001C30 15.4378 29.7897 14.8977 29.4139 14.4948ZM28.4181 16.5022L26.5089 18.5634C26.0607 19.0472 25.8559 19.7061 25.9458 20.372L26.3284 23.2105C26.3543 23.396 26.3098 23.5848 26.2042 23.7366C26.0986 23.8884 25.9404 23.9912 25.7633 24.0231L23.0564 24.5182C22.421 24.6347 21.8835 25.043 21.5814 25.6377L20.2955 28.1679C20.1198 28.5149 19.7182 28.6518 19.3795 28.479L16.9127 27.2185C16.6274 27.0732 16.3137 26.9998 16.0001 26.9998C15.6864 26.9998 15.3727 27.0732 15.0874 27.2191L12.6206 28.4783C12.2832 28.6518 11.8803 28.5149 11.7046 28.1679L10.4188 25.637C10.1166 25.0417 9.57844 24.634 8.94232 24.5182L6.23682 24.0224C6.05973 23.9906 5.90152 23.888 5.79584 23.7363C5.69016 23.5847 5.64536 23.396 5.67097 23.2105L6.05427 20.372C6.14418 19.7061 5.93932 19.0473 5.49181 18.5641L3.58202 16.5022C3.45684 16.3677 3.38683 16.1875 3.38683 16C3.38683 15.8125 3.45684 15.6323 3.58202 15.4978L5.49116 13.4367C5.93937 12.9528 6.14418 12.294 6.05427 11.628L5.67162 8.78958C5.64573 8.60399 5.69031 8.41519 5.79588 8.26341C5.90144 8.11162 6.05964 8.00884 6.23676 7.97697L8.94363 7.48179C9.5791 7.36538 10.1166 6.95699 10.4187 6.36236L11.7045 3.83213C11.8803 3.48509 12.2832 3.34968 12.6205 3.52103L15.0874 4.78158C15.6579 5.07219 16.3421 5.07288 16.9127 4.7809L19.3795 3.52183C19.7176 3.34831 20.1198 3.48514 20.2955 3.83219L21.5814 6.3631C21.8836 6.95842 22.4217 7.36618 23.0578 7.48185L25.7633 7.97771C25.9404 8.00949 26.0986 8.11212 26.2043 8.26375C26.31 8.41539 26.3548 8.60406 26.3292 8.78964L25.9459 11.6281C25.8559 12.294 26.0608 12.9528 26.5083 13.436L28.4181 15.4978C28.5433 15.6324 28.6133 15.8125 28.6133 16C28.6133 16.1876 28.5432 16.3677 28.4181 16.5022Z"/>
<path d="M20.6434 11.1558C20.3729 10.8736 19.9349 10.8736 19.6645 11.1558L11.3573 19.8235C11.0869 20.1057 11.0869 20.5628 11.3573 20.8449C11.4925 20.986 11.6696 21.0566 11.8468 21.0566C12.0239 21.0566 12.201 20.9861 12.3362 20.8449L20.6434 12.1772C20.9137 11.895 20.9137 11.4379 20.6434 11.1558ZM15.3108 12.3902C15.3108 10.796 14.0682 9.49951 12.5404 9.49951C11.0125 9.49951 9.76996 10.796 9.76996 12.3902C9.76996 13.9844 11.0125 15.2809 12.5404 15.2809C14.0682 15.2809 15.3108 13.9844 15.3108 12.3902ZM11.1545 12.3902C11.1545 11.5931 11.7765 10.9441 12.5404 10.9441C13.3044 10.9441 13.9263 11.5931 13.9263 12.3902C13.9263 13.1873 13.3044 13.8362 12.5404 13.8362C11.7764 13.8362 11.1545 13.1873 11.1545 12.3902ZM19.4602 16.7198C17.9324 16.7198 16.6898 18.0163 16.6898 19.6105C16.6898 21.2047 17.9324 22.5012 19.4602 22.5012C20.9881 22.5012 22.2307 21.2047 22.2307 19.6105C22.2307 18.0163 20.9881 16.7198 19.4602 16.7198ZM19.4602 21.0565C18.6963 21.0565 18.0744 20.4076 18.0744 19.6105C18.0744 18.8134 18.6963 18.1644 19.4602 18.1644C20.2242 18.1644 20.8461 18.8134 20.8461 19.6105C20.8461 20.4076 20.2242 21.0565 19.4602 21.0565Z"/>
</symbol><symbol viewBox="0 0 32 32" id="search" xmlns="http://www.w3.org/2000/svg">
<path fill-rule="evenodd" clip-rule="evenodd" d="M22.767 24.1769C20.5673 26.0547 17.7132 27.1885 14.5943 27.1885C7.63865 27.1885 2 21.5498 2 14.5942C2 7.63863 7.63865 2 14.5943 2C21.5499 2 27.1886 7.63863 27.1886 14.5942C27.1886 17.7132 26.0548 20.5673 24.1769 22.767C24.2157 22.796 24.2529 22.8281 24.2882 22.8633L29.7049 28.28C30.0984 28.6735 30.0984 29.3114 29.7049 29.7049C29.3114 30.0984 28.6735 30.0984 28.28 29.7049L22.8633 24.2882C22.828 24.2529 22.7959 24.2157 22.767 24.1769ZM25.1735 14.5942C25.1735 20.4369 20.437 25.1734 14.5943 25.1734C8.75155 25.1734 4.01508 20.4369 4.01508 14.5942C4.01508 8.75153 8.75155 4.01508 14.5943 4.01508C20.437 4.01508 25.1735 8.75153 25.1735 14.5942Z"/>
</symbol><symbol viewBox="0 0 32 32" id="send" xmlns="http://www.w3.org/2000/svg">
<path d="M19.5794 30C19.0375 29.9915 18.508 29.8369 18.0464 29.5526C17.5848 29.2683 17.2082 28.8647 16.9562 28.3842L12.3918 20.0295C12.2924 19.8384 12.1367 19.6825 11.9459 19.5829L3.60413 15.0772C3.0741 14.7888 2.64066 14.3504 2.35796 13.8167C2.07526 13.2831 1.95583 12.6778 2.01461 12.0766C2.07338 11.4753 2.30774 10.9047 2.68841 10.4361C3.06908 9.96751 3.57919 9.62163 4.155 9.44169L25.8882 2.17732C26.437 1.98252 27.0297 1.9474 27.5976 2.07604C28.1656 2.20467 28.6855 2.4918 29.0972 2.90417C29.509 3.31654 29.7956 3.83728 29.9241 4.4061C30.0525 4.97491 30.0175 5.56853 29.823 6.11821L22.5174 27.8982C22.3338 28.4662 21.9869 28.9673 21.5203 29.3388C21.0537 29.7104 20.4881 29.9358 19.8942 29.9869L19.5794 30ZM26.4522 4.05581L4.71899 11.3202C4.51179 11.3869 4.32897 11.5136 4.19359 11.6842C4.0582 11.8549 3.97631 12.0619 3.95826 12.2791C3.93868 12.4938 3.98305 12.7094 4.08577 12.8988C4.18848 13.0881 4.34494 13.2428 4.53536 13.3432L12.8771 17.8489C13.4077 18.1308 13.8417 18.5655 14.1231 19.0969L18.5826 27.4516C18.6828 27.6423 18.8372 27.799 19.0263 27.9018C19.2154 28.0047 19.4307 28.0492 19.645 28.0296C19.8618 28.0115 20.0685 27.9295 20.2389 27.7939C20.4093 27.6583 20.5358 27.4752 20.6024 27.2676L27.8949 5.5008C27.9798 5.29868 28.0027 5.07581 27.9605 4.86063C27.9184 4.64545 27.8132 4.44772 27.6584 4.29267C27.5036 4.13761 27.3062 4.03227 27.0913 3.99009C26.8765 3.9479 26.654 3.97078 26.4522 4.05581Z"/>
<path d="M12.9024 20.0563C12.7729 20.0592 12.6441 20.035 12.5244 19.9852C12.4047 19.9355 12.2967 19.8612 12.2073 19.7673C12.1145 19.6767 12.0407 19.5684 11.9904 19.4488C11.94 19.3293 11.9141 19.2008 11.9141 19.071C11.9141 18.9413 11.94 18.8128 11.9904 18.6932C12.0407 18.5736 12.1145 18.4654 12.2073 18.3748L27.6317 2.87397C27.823 2.68236 28.0825 2.57471 28.3531 2.57471C28.6236 2.57471 28.8831 2.68236 29.0744 2.87397C29.2658 3.06559 29.3732 3.32548 29.3732 3.59647C29.3732 3.86746 29.2658 4.12735 29.0744 4.31897L13.5976 19.7673C13.5068 19.8594 13.3985 19.9324 13.2791 19.982C13.1598 20.0316 13.0317 20.0569 12.9024 20.0563Z"/>
</symbol><symbol viewBox="0 0 32 32" id="share" xmlns="http://www.w3.org/2000/svg">
<path d="M24.8512 19.7958C23.2163 19.7958 21.7742 20.5681 20.8321 21.7507L12.0934 17.3196C12.2078 16.8965 12.29 16.4594 12.29 15.9994C12.29 15.4985 12.1923 15.027 12.0561 14.5682L20.7562 10.1575C21.6932 11.3937 23.1725 12.2017 24.8524 12.2017C27.6981 12.2017 30 9.91923 30 7.10022C30.0001 4.28375 27.6981 2 24.8525 2C22.0133 2 19.7088 4.28375 19.7088 7.10016C19.7088 7.56151 19.791 7.99989 19.9067 8.42426L11.1693 12.8554C10.2259 11.6715 8.78116 10.8967 7.14371 10.8967C4.30063 10.8967 2 13.1816 2 15.9994C2 18.8171 4.30069 21.1008 7.14371 21.1008C8.82615 21.1008 10.3043 20.2903 11.245 19.0529L19.9413 23.4635C19.8051 23.9211 19.7061 24.3964 19.7061 24.8985C19.7061 27.7163 22.0106 30 24.8499 30C27.6955 30 29.9974 27.7163 29.9974 24.8985C29.9987 22.0783 27.6968 19.7958 24.8512 19.7958Z"/>
</symbol><symbol viewBox="0 0 32 32" id="star" xmlns="http://www.w3.org/2000/svg">
<path d="M29.7025 13.65L23.5668 19.9266L25.0158 28.7916C25.0788 29.1792 24.9271 29.571 24.6238 29.8026C24.4524 29.9338 24.2485 30 24.0446 30C23.888 30 23.7304 29.9607 23.5865 29.8811L16 25.6957L8.41443 29.8801C8.08347 30.0641 7.6806 30.0341 7.37722 29.8015C7.07384 29.57 6.92214 29.1782 6.98518 28.7906L8.43414 19.9256L2.29752 13.65C2.0296 13.3751 1.93208 12.9636 2.04831 12.5905C2.16454 12.2173 2.47285 11.9434 2.8442 11.8865L11.3242 10.5944L15.1164 2.52951C15.4484 1.8235 16.5516 1.8235 16.8836 2.52951L20.6758 10.5944L29.1558 11.8865C29.5271 11.9434 29.8355 12.2163 29.9517 12.5905C30.0679 12.9647 29.9704 13.374 29.7025 13.65Z"/>
</symbol><symbol viewBox="0 0 32 32" id="tags" xmlns="http://www.w3.org/2000/svg">
<path d="M27.1523 5.87554V4.78682C27.1523 3.25016 25.909 2 24.3808 2H16.6728C15.9324 2 15.2365 2.2899 14.713 2.81632L3.81183 13.7778C3.2883 14.3042 3 15.004 3 15.7484C3 16.4928 3.2883 17.1927 3.81183 17.719L4.91953 18.8329C4.87259 19.0376 4.84774 19.249 4.84774 19.4642C4.84774 20.2086 5.13604 20.9085 5.65957 21.4348L13.3674 29.1852C13.9077 29.7284 14.6175 30 15.3272 30C16.0368 30 16.7466 29.7284 17.2869 29.185L28.1882 18.2235C28.7117 17.6971 29 16.9973 29 16.2529V8.50256C29 7.29156 28.2275 6.25901 27.1523 5.87554ZM5.11831 16.4053C4.94384 16.2299 4.84768 15.9966 4.84768 15.7484C4.84768 15.5002 4.94384 15.267 5.11831 15.0915L16.0196 4.12997C16.1941 3.95459 16.426 3.8579 16.6728 3.8579H24.3808C24.8902 3.8579 25.3046 4.27462 25.3046 4.78682V5.71574H18.5205C17.7801 5.71574 17.0842 6.00564 16.5607 6.53206L5.93014 17.2215L5.11831 16.4053ZM26.8817 16.9098L15.9804 27.8713C15.6201 28.2336 15.0341 28.2335 14.6739 27.8713L6.966 20.121C6.79152 19.9456 6.69537 19.7123 6.69537 19.4641C6.69537 19.216 6.79152 18.9828 6.966 18.8072L17.8672 7.84566C18.0418 7.67027 18.2737 7.57359 18.5205 7.57359H26.2284C26.7378 7.57359 27.1523 7.9903 27.1523 8.50251V16.2528C27.1523 16.501 27.0562 16.7343 26.8817 16.9098Z"/>
<path d="M22.5332 9.43155C21.0049 9.43155 19.7617 10.6817 19.7617 12.2184C19.7617 13.755 21.0049 15.0052 22.5332 15.0052C24.0614 15.0052 25.3047 13.755 25.3047 12.2184C25.3047 10.6817 24.0614 9.43155 22.5332 9.43155ZM22.5332 13.1473C22.0238 13.1473 21.6093 12.7306 21.6093 12.2184C21.6093 11.7062 22.0238 11.2895 22.5332 11.2895C23.0425 11.2895 23.457 11.7062 23.457 12.2184C23.457 12.7306 23.0425 13.1473 22.5332 13.1473Z"/>
</symbol><symbol viewBox="0 0 32 32" stroke-width="0" id="telegram" xmlns="http://www.w3.org/2000/svg">
<path fill-rule="evenodd" clip-rule="evenodd" d="M3.92424 14.3319C11.4379 10.9449 16.4483 8.71196 18.9551 7.63321C26.1129 4.553 27.6002 4.01789 28.5696 4.00019C28.7828 3.99633 29.2595 4.05102 29.5683 4.31029C30.0264 4.69487 30.029 5.52966 29.9782 6.08216C29.5903 10.2988 27.9119 20.5314 27.0581 25.2541C26.6967 27.2525 25.9853 27.9226 25.2967 27.9881C23.7999 28.1306 22.6634 26.9647 21.2137 25.9815C18.9452 24.443 17.6637 23.4853 15.4617 21.984C12.917 20.249 14.5667 19.2955 16.0169 17.7371C16.3964 17.3293 22.9911 11.1231 23.1187 10.5601C23.1348 10.4897 23.1495 10.2272 22.9988 10.0886C22.8481 9.95008 22.6257 9.99737 22.4652 10.0351C22.2377 10.0885 18.6138 12.5667 11.5936 17.4697C10.5649 18.2005 9.63322 18.5565 8.79848 18.5379C7.87816 18.5174 6.108 17.9996 4.79201 17.557C3.1779 17.0141 1.89503 16.7271 2.00679 15.8052C2.06498 15.3249 2.7041 14.8338 3.92424 14.3319Z"/>
</symbol><symbol viewBox="0 0 32 32" stroke-width="0" id="tiktok" xmlns="http://www.w3.org/2000/svg">
<path d="M26.9871 9.01082C25.4257 9.01082 23.9851 8.48062 22.8282 7.5862C21.5014 6.56087 20.5481 5.05683 20.2115 3.32329C20.1281 2.89497 20.0832 2.45296 20.079 2H15.6187V14.4924L15.6133 21.3351C15.6133 23.1645 14.4511 24.7156 12.84 25.2611C12.3725 25.4194 11.8675 25.4945 11.3417 25.4649C10.6705 25.4271 10.0416 25.2195 9.49496 24.8843C8.33166 24.1712 7.54295 22.8774 7.52158 21.3975C7.48791 19.0845 9.31221 17.1987 11.5672 17.1987C12.0123 17.1987 12.4398 17.2732 12.84 17.4085V13.994V12.7665C12.4179 12.7025 11.9883 12.669 11.5538 12.669C9.08564 12.669 6.77722 13.7207 5.12713 15.6152C3.87994 17.047 3.13184 18.8736 3.01642 20.789C2.8652 23.3052 3.76345 25.6971 5.50545 27.4619C5.76141 27.7209 6.03019 27.9614 6.31126 28.1832C7.80479 29.3614 9.63068 30 11.5538 30C11.9883 30 12.4179 29.9671 12.84 29.9031C14.6365 29.6303 16.2941 28.7873 17.6022 27.4619C19.2096 25.8335 20.0977 23.6716 20.1073 21.3707L20.0843 11.1524C20.8511 11.7587 21.6895 12.2604 22.5894 12.6499C23.9888 13.2551 25.4727 13.5618 26.9999 13.5613V10.2415V9.00972C27.001 9.01082 26.9882 9.01082 26.9871 9.01082Z"/>
</symbol><symbol viewBox="0 0 32 32" fill="none" id="tile" xmlns="http://www.w3.org/2000/svg">
<path fill-rule="evenodd" clip-rule="evenodd" d="M6.66667 4.33333C6.66667 5.622 5.622 6.66667 4.33333 6.66667C3.04466 6.66667 2 5.622 2 4.33333C2 3.04466 3.04466 2 4.33333 2C5.622 2 6.66667 3.04466 6.66667 4.33333ZM6.66667 16C6.66667 17.2886 5.622 18.3333 4.33333 18.3333C3.04466 18.3333 2 17.2886 2 16C2 14.7114 3.04466 13.6667 4.33333 13.6667C5.622 13.6667 6.66667 14.7114 6.66667 16ZM4.33333 30C5.622 30 6.66667 28.9553 6.66667 27.6667C6.66667 26.378 5.622 25.3333 4.33333 25.3333C3.04466 25.3333 2 26.378 2 27.6667C2 28.9553 3.04466 30 4.33333 30ZM18.3333 16C18.3333 17.2886 17.2886 18.3333 16 18.3333C14.7114 18.3333 13.6667 17.2886 13.6667 16C13.6667 14.7114 14.7114 13.6667 16 13.6667C17.2886 13.6667 18.3333 14.7114 18.3333 16ZM16 6.66667C17.2886 6.66667 18.3333 5.622 18.3333 4.33333C18.3333 3.04466 17.2886 2 16 2C14.7114 2 13.6667 3.04466 13.6667 4.33333C13.6667 5.622 14.7114 6.66667 16 6.66667ZM18.3333 27.6667C18.3333 28.9553 17.2886 30 16 30C14.7114 30 13.6667 28.9553 13.6667 27.6667C13.6667 26.378 14.7114 25.3333 16 25.3333C17.2886 25.3333 18.3333 26.378 18.3333 27.6667ZM27.6667 18.3333C28.9553 18.3333 30 17.2886 30 16C30 14.7114 28.9553 13.6667 27.6667 13.6667C26.378 13.6667 25.3333 14.7114 25.3333 16C25.3333 17.2886 26.378 18.3333 27.6667 18.3333ZM30 4.33333C30 5.622 28.9553 6.66667 27.6667 6.66667C26.378 6.66667 25.3333 5.622 25.3333 4.33333C25.3333 3.04466 26.378 2 27.6667 2C28.9553 2 30 3.04466 30 4.33333ZM27.6667 30C28.9553 30 30 28.9553 30 27.6667C30 26.378 28.9553 25.3333 27.6667 25.3333C26.378 25.3333 25.3333 26.378 25.3333 27.6667C25.3333 28.9553 26.378 30 27.6667 30Z" fill="currentColor"/>
</symbol><symbol viewBox="0 0 32 32" id="time" xmlns="http://www.w3.org/2000/svg">
<path d="M20.9877 18.4725L17.0837 15.5445V9.58018C17.0837 8.98048 16.599 8.49573 15.9992 8.49573C15.3995 8.49573 14.9148 8.98048 14.9148 9.58018V16.0868C14.9148 16.4284 15.0753 16.7505 15.3486 16.9544L19.6863 20.2077C19.8815 20.3541 20.1092 20.4245 20.3359 20.4245C20.6666 20.4245 20.9919 20.276 21.2045 19.9897C21.5646 19.5114 21.467 18.8314 20.9877 18.4725Z"/>
<path d="M16 2C8.27993 2 2 8.27993 2 16C2 23.7201 8.27993 30 16 30C23.7201 30 30 23.7201 30 16C30 8.27993 23.7201 2 16 2ZM16 27.8311C9.47715 27.8311 4.16885 22.5229 4.16885 16C4.16885 9.47715 9.47715 4.16885 16 4.16885C22.5239 4.16885 27.8311 9.47715 27.8311 16C27.8311 22.5229 22.5229 27.8311 16 27.8311Z"/>
</symbol><symbol viewBox="0 0 32 32" id="truck-fast" xmlns="http://www.w3.org/2000/svg">
<path d="M17.3024 19.5814H16C15.4661 19.5814 15.0233 19.1386 15.0233 18.6047C15.0233 18.0707 15.4661 17.6279 16 17.6279H17.3024C18.201 17.6279 18.9303 16.8986 18.9303 16V3.95349H8.18608C6.64934 3.95349 5.24279 4.78695 4.48744 6.12835C4.22698 6.59719 3.62796 6.76654 3.15912 6.50607C2.69029 6.24561 2.52093 5.64651 2.7814 5.17768C3.87535 3.22419 5.94608 2 8.18608 2H19.907C20.441 2 20.8838 2.44279 20.8838 2.97674V16C20.8838 17.9795 19.2819 19.5814 17.3024 19.5814Z"/>
<path d="M25.1163 27.3954H23.814C23.28 27.3954 22.8372 26.9526 22.8372 26.4186C22.8372 25.52 22.1079 24.7907 21.2093 24.7907C20.3107 24.7907 19.5814 25.52 19.5814 26.4186C19.5814 26.9526 19.1386 27.3954 18.6047 27.3954H13.3953C12.8614 27.3954 12.4186 26.9526 12.4186 26.4186C12.4186 25.52 11.6893 24.7907 10.7907 24.7907C9.89209 24.7907 9.16279 25.52 9.16279 26.4186C9.16279 26.9526 8.72 27.3954 8.18605 27.3954H6.88372C4.18791 27.3954 2 25.2074 2 22.5116C2 21.9777 2.44279 21.5349 2.97674 21.5349C3.5107 21.5349 3.95349 21.9777 3.95349 22.5116C3.95349 24.1265 5.26884 25.4419 6.88372 25.4419H7.3395C7.76927 23.9442 9.14977 22.8372 10.7907 22.8372C12.4316 22.8372 13.8121 23.9442 14.2419 25.4419H17.7711C18.2009 23.9442 19.5814 22.8372 21.2223 22.8372C22.8633 22.8372 24.2437 23.9442 24.6735 25.4419H25.1163C26.7312 25.4419 28.0465 24.1265 28.0465 22.5116V19.5814H25.1163C23.866 19.5814 22.8372 18.5526 22.8372 17.3023V13.3954C22.8372 12.1451 23.853 11.1163 25.1163 11.1163L23.7228 8.68094C23.4363 8.17303 22.8893 7.86047 22.3033 7.86047H20.8837V16C20.8837 17.9795 19.2819 19.5814 17.3023 19.5814H16C15.466 19.5814 15.0233 19.1386 15.0233 18.6047C15.0233 18.0707 15.466 17.6279 16 17.6279H17.3023C18.2009 17.6279 18.9302 16.8986 18.9302 16V6.88373C18.9302 6.34977 19.373 5.90698 19.907 5.90698H22.3033C23.5926 5.90698 24.7776 6.59723 25.4158 7.71723L27.6428 11.6112C27.8121 11.9107 27.8121 12.2884 27.6428 12.5879C27.4735 12.8875 27.1479 13.0698 26.7963 13.0698H25.1163C24.934 13.0698 24.7907 13.213 24.7907 13.3954V17.3023C24.7907 17.4847 24.934 17.6279 25.1163 17.6279H29.0233C29.5572 17.6279 30 18.0707 30 18.6047V22.5116C30 25.2074 27.8121 27.3954 25.1163 27.3954Z"/>
<path d="M10.7904 29.9999C8.81084 29.9999 7.20898 28.3981 7.20898 26.4186C7.20898 24.439 8.81084 22.8372 10.7904 22.8372C12.7699 22.8372 14.3718 24.439 14.3718 26.4186C14.3718 28.3981 12.7699 29.9999 10.7904 29.9999ZM10.7904 24.7906C9.89177 24.7906 9.16247 25.5199 9.16247 26.4186C9.16247 27.3172 9.89177 28.0465 10.7904 28.0465C11.689 28.0465 12.4183 27.3172 12.4183 26.4186C12.4183 25.5199 11.689 24.7906 10.7904 24.7906Z"/>
<path d="M21.2093 29.9999C19.2298 29.9999 17.6279 28.3981 17.6279 26.4186C17.6279 24.439 19.2298 22.8372 21.2093 22.8372C23.1889 22.8372 24.7907 24.439 24.7907 26.4186C24.7907 28.3981 23.1889 29.9999 21.2093 29.9999ZM21.2093 24.7906C20.3107 24.7906 19.5814 25.5199 19.5814 26.4186C19.5814 27.3172 20.3107 28.0465 21.2093 28.0465C22.1079 28.0465 22.8372 27.3172 22.8372 26.4186C22.8372 25.5199 22.1079 24.7906 21.2093 24.7906Z"/>
<path d="M29.023 19.5813H25.116C23.8658 19.5813 22.8369 18.5525 22.8369 17.3023V13.3953C22.8369 12.145 23.8658 11.1162 25.116 11.1162H26.796C27.1476 11.1162 27.4732 11.2985 27.6425 11.6111L29.8695 15.5181C29.9476 15.6613 29.9997 15.8306 29.9997 15.9999V18.6046C29.9997 19.1385 29.5569 19.5813 29.023 19.5813ZM25.116 13.0697C24.9337 13.0697 24.7904 13.213 24.7904 13.3953V17.3023C24.7904 17.4846 24.9337 17.6278 25.116 17.6278H28.0462V16.2604L26.2229 13.0697H25.116Z"/>
<path d="M10.7907 11.7675H2.97674C2.44279 11.7675 2 11.3247 2 10.7907C2 10.2568 2.44279 9.81396 2.97674 9.81396H10.7907C11.3247 9.81396 11.7674 10.2568 11.7674 10.7907C11.7674 11.3247 11.3247 11.7675 10.7907 11.7675Z"/>
<path d="M8.18605 15.6744H2.97674C2.44279 15.6744 2 15.2316 2 14.6977C2 14.1637 2.44279 13.7209 2.97674 13.7209H8.18605C8.72 13.7209 9.16279 14.1637 9.16279 14.6977C9.16279 15.2316 8.72 15.6744 8.18605 15.6744Z"/>
<path d="M5.5814 19.5814H2.97674C2.44279 19.5814 2 19.1386 2 18.6047C2 18.0707 2.44279 17.6279 2.97674 17.6279H5.5814C6.11535 17.6279 6.55814 18.0707 6.55814 18.6047C6.55814 19.1386 6.11535 19.5814 5.5814 19.5814Z"/>
</symbol><symbol viewBox="0 0 32 32" stroke-width="0" id="youtube" xmlns="http://www.w3.org/2000/svg">
<path d="M29.3805 8.85766L29.4155 9.08825C29.0772 7.87766 28.1637 6.94354 27.0029 6.60355L26.9784 6.59766C24.7956 6.00002 16.0118 6.00002 16.0118 6.00002C16.0118 6.00002 7.25028 5.98825 5.04531 6.59766C3.86232 6.94354 2.94767 7.87766 2.61517 9.06354L2.60934 9.08825C1.79385 13.3835 1.78801 18.5447 2.6455 23.1435L2.60934 22.9106C2.94767 24.1212 3.86115 25.0553 5.02197 25.3953L5.04647 25.4012C7.22695 26 16.013 26 16.013 26C16.013 26 24.7734 26 26.9795 25.4012C28.1637 25.0553 29.0783 24.1212 29.4108 22.9353L29.4167 22.9106C29.7877 20.9129 30 18.6141 30 16.2659C30 16.18 30 16.0929 29.9988 16.0059C30 15.9259 30 15.8306 30 15.7353C30 13.3859 29.7877 11.0871 29.3805 8.85766ZM13.2095 20.2953V11.7153L20.5198 16.0118L13.2095 20.2953Z"/>
</symbol></svg>