<svg width="180" height="48" viewBox="0 0 180 48" fill="none" xmlns="http://www.w3.org/2000/svg">
<g clip-path="url(#clip0_3901_4865)">
<path d="M31.6366 27.5561C31.6354 27.5558 15.6959 23.9597 15.6959 23.9597C10.9449 22.8878 7.9646 18.1789 9.03943 13.442C10.1149 8.70515 14.8381 5.73449 19.5891 6.80606C24.3404 7.87803 27.3204 12.5868 26.2455 17.3234C25.7069 19.6949 24.2538 21.622 22.3407 22.8225C22.3404 22.8225 22.3358 22.8265 22.334 22.8274C22.2777 22.8676 22.2413 22.9332 22.2413 23.0069C22.2413 23.1102 22.3129 23.1971 22.4095 23.2202C22.4098 23.2205 29.5003 24.8191 29.5016 24.8191C29.6703 24.8572 29.8455 24.7923 29.9492 24.6558C29.9497 24.6545 29.9495 24.6555 29.9495 24.6555C31.9029 22.0785 33.0762 18.8631 33.0762 15.3853C33.0762 7.19501 26.6579 0.501694 18.5622 0.0262985C18.4901 0.0223198 18.0513 0.00522995 17.9031 0.00312424C14.3187 -0.0529747 10.6844 0.971703 7.52404 3.17828C-0.45704 8.74962 -2.39614 19.7159 3.19157 27.6725L17.373 47.8644C17.4335 47.9467 17.5311 48 17.6405 48C17.7508 48 17.8486 47.9457 17.9089 47.8628C17.9089 47.8628 31.8347 28.0635 31.836 28.0617C31.8714 28.0092 31.8925 27.9456 31.8925 27.8773C31.8925 27.7206 31.7834 27.5895 31.6366 27.5561Z" fill="#FABC26"/>
<path d="M45.2804 9.45464C45.451 9.45464 45.5641 9.51098 45.6207 9.62403L50.3493 17.669H50.5756L54.5965 9.73654C54.6812 9.53875 54.8515 9.45464 55.078 9.45464H57.966C58.221 9.45464 58.3622 9.70876 58.2488 9.90601L49.9241 24.5856C49.8394 24.7548 49.6698 24.8398 49.4429 24.8398H46.6115C46.2999 24.8398 46.2718 24.6421 46.3852 24.4162L48.6218 20.605L41.9396 9.82159C41.8259 9.62403 41.9112 9.45464 42.1093 9.45464H45.2804Z" fill="#2C2E2C"/>
<path d="M63.2212 9.45464C63.4761 9.45464 63.6177 9.5954 63.6177 9.8496V15.887L69.9892 9.68013C70.1589 9.53875 70.4136 9.45464 70.725 9.45464H74.1796C74.4345 9.45464 74.5198 9.68013 74.3211 9.87792L67.5534 16.2015L74.746 24.4162C74.9441 24.6134 74.8313 24.8398 74.5763 24.8398H71.1784C70.8669 24.8398 70.6407 24.7548 70.4701 24.557L65.0817 18.2203L63.6177 19.5779V24.4443C63.6177 24.6985 63.4761 24.8398 63.2212 24.8398H60.7296C60.4747 24.8398 60.3335 24.6985 60.3335 24.4443V9.8496C60.3335 9.5954 60.4747 9.45464 60.7296 9.45464H63.2212Z" fill="#2C2E2C"/>
<path d="M84.1353 17.6409C85.8626 17.6409 86.8533 16.5684 86.8533 15.0723C86.8533 13.6041 85.8626 12.5599 84.1353 12.5599H80.029V17.6409H84.1353ZM84.1353 9.45428C87.5608 9.45428 90.1372 11.9101 90.1372 15.0723C90.1372 18.3468 87.5608 20.7463 84.1353 20.7463H80.029V24.4442C80.029 24.6981 79.8873 24.8395 79.633 24.8395H77.1407C76.886 24.8395 76.7441 24.6981 76.7441 24.4442V9.84954C76.7441 9.59534 76.886 9.45428 77.1407 9.45428H84.1353Z" fill="#2C2E2C"/>
<path d="M105.615 9.45464C105.869 9.45464 106.011 9.5954 106.011 9.8496V24.4443C106.011 24.6985 105.869 24.8398 105.615 24.8398H103.122C102.868 24.8398 102.726 24.6985 102.726 24.4443V12.5313H95.8735V24.4443C95.8735 24.6985 95.7318 24.8398 95.4775 24.8398H92.9857C92.7305 24.8398 92.5889 24.6985 92.5889 24.4443V9.8496C92.5889 9.5954 92.7305 9.45464 92.9857 9.45464H105.615Z" fill="#2C2E2C"/>
<path d="M112.248 17.161C112.248 19.9558 114.229 21.9877 117.061 21.9877C119.865 21.9877 121.847 19.9558 121.847 17.161C121.847 14.3097 119.865 12.3056 117.061 12.3056C114.229 12.3056 112.248 14.3097 112.248 17.161ZM117.061 9.22816C121.507 9.22816 125.16 12.6441 125.16 17.161C125.16 21.7058 121.507 25.0654 117.061 25.0654C112.587 25.0654 108.935 21.7058 108.935 17.161C108.935 12.6441 112.587 9.22816 117.061 9.22816Z" fill="#2C2E2C"/>
<path d="M136.154 21.7628V9.84929C136.154 9.59571 136.295 9.45464 136.551 9.45464H138.986C139.241 9.45464 139.383 9.59571 139.383 9.84929V21.7628H144.225V9.84929C144.225 9.59571 144.365 9.45464 144.621 9.45464H147.056C147.311 9.45464 147.452 9.59571 147.452 9.84929V24.4443C147.452 24.6985 147.311 24.8398 147.056 24.8398H128.481C128.283 24.8398 128.084 24.6985 128.084 24.4443V9.84929C128.084 9.59571 128.225 9.45464 128.481 9.45464H130.915C131.171 9.45464 131.312 9.59571 131.312 9.84929V21.7628H136.154Z" fill="#2C2E2C"/>
<path d="M163.187 9.45464C163.441 9.45464 163.583 9.5954 163.583 9.8496V12.1644C163.583 12.4186 163.441 12.5594 163.187 12.5594H158.26V24.4443C158.26 24.6985 158.118 24.8398 157.863 24.8398H155.371C155.117 24.8398 154.975 24.6985 154.975 24.4443V12.5594H150.048C149.794 12.5594 149.651 12.4186 149.651 12.1644V9.8496C149.651 9.5954 149.794 9.45464 150.048 9.45464H163.187Z" fill="#2C2E2C"/>
<path d="M168.79 18.8268H174.17L171.678 12.5036H171.367L168.79 18.8268ZM175.303 21.7908H167.6L166.525 24.5005C166.44 24.7267 166.271 24.8395 166.044 24.8395H163.24C162.958 24.8395 162.873 24.6981 162.958 24.4442L169.64 9.68039C169.696 9.53901 169.81 9.45428 170.008 9.45428H173.236C173.434 9.45428 173.547 9.53901 173.604 9.68039L179.975 24.3875C180.06 24.614 179.919 24.8395 179.663 24.8395H176.974C176.691 24.8395 176.492 24.6981 176.379 24.4442L175.303 21.7908Z" fill="#2C2E2C"/>
<path d="M44.1201 38.0304V31.4419H48.4679V32.2009H44.9935V38.0304H44.1201Z" fill="#617171"/>
<path d="M50.6089 34.7269C50.6089 36.3742 51.5099 37.4382 52.9127 37.4382C54.297 37.4382 55.1979 36.3644 55.1979 34.7269C55.1979 33.0985 54.297 32.0436 52.8941 32.0436C51.3335 32.0436 50.6089 33.3203 50.6089 34.7269ZM56.0716 34.6805C56.0716 36.615 55.0031 38.1876 52.9035 38.1876C50.7856 38.1876 49.7358 36.5775 49.7358 34.662C49.7358 32.6083 50.9712 31.2847 52.8941 31.2847C54.9472 31.2847 56.0716 32.7187 56.0716 34.6805Z" fill="#617171"/>
<path d="M62.9083 38.0304H62.0352V32.2008H59.592L59.4621 35.9112C59.4156 37.2348 58.9322 38.1693 57.9292 38.1693C57.7431 38.1693 57.4646 38.1044 57.2974 38.0395V37.2992C57.4184 37.3736 57.6691 37.3921 57.7709 37.3921C58.2447 37.3921 58.589 37.1328 58.6352 35.4577L58.7559 31.4419H62.9083V38.0304Z" fill="#617171"/>
<path d="M65.842 34.7269C65.842 36.3742 66.7429 37.4382 68.1458 37.4382C69.5298 37.4382 70.431 36.3644 70.431 34.7269C70.431 33.0985 69.5298 32.0436 68.1272 32.0436C66.5665 32.0436 65.842 33.3203 65.842 34.7269ZM71.304 34.6805C71.304 36.615 70.2362 38.1876 68.1367 38.1876C66.0184 38.1876 64.9683 36.5775 64.9683 34.662C64.9683 32.6083 66.2042 31.2847 68.1272 31.2847C70.1803 31.2847 71.304 32.7187 71.304 34.6805Z" fill="#617171"/>
<path d="M74.2143 37.2992H75.9611C76.8434 37.2992 77.7073 37.2441 77.7073 36.0874C77.7073 34.9399 76.6948 34.949 75.8126 34.949H74.2143V37.2992ZM74.2143 34.2642H75.7844C76.5276 34.2642 77.4196 34.2087 77.4196 33.2188C77.4196 32.2283 76.6481 32.1823 75.8682 32.1823H74.2143V34.2642ZM76.184 31.4419C77.2803 31.4419 78.2923 31.8772 78.2923 33.089C78.2923 33.7366 77.9118 34.2922 77.3172 34.5047C78.1347 34.6903 78.5896 35.3004 78.5896 36.1706C78.5896 37.6881 77.3451 38.0304 76.0819 38.0304H73.3599V31.4419H76.184Z" fill="#617171"/>
<path d="M85.9154 38.0304H85.042V34.949H81.5492V38.0304H80.6758V31.4419H81.5492V34.1898H85.042V31.4419H85.9154V38.0304Z" fill="#617171"/>
<path d="M90.7926 32.2746L89.65 35.3194H91.9173L90.7926 32.2746ZM93.8863 38.0304H92.9112L92.1771 36.0133H89.3996L88.6475 38.0304H87.7178L90.3192 31.4419H91.3037L93.8863 38.0304Z" fill="#617171"/>
<path d="M104.655 38.0304H103.781V32.2009H100.288V38.0304H99.415V31.4419H104.655V38.0304Z" fill="#617171"/>
<path d="M107.596 34.7269C107.596 36.3742 108.497 37.4382 109.899 37.4382C111.284 37.4382 112.184 36.3644 112.184 34.7269C112.184 33.0985 111.284 32.0436 109.881 32.0436C108.32 32.0436 107.596 33.3203 107.596 34.7269ZM113.058 34.6805C113.058 36.615 111.99 38.1876 109.891 38.1876C107.772 38.1876 106.723 36.5775 106.723 34.662C106.723 32.6083 107.958 31.2847 109.881 31.2847C111.934 31.2847 113.058 32.7187 113.058 34.6805Z" fill="#617171"/>
<path d="M115.114 31.4419H115.987V37.2718H118.923V31.4419H119.795V37.2718H122.731V31.4419H123.604V38.0304H115.114V31.4419Z" fill="#617171"/>
<path d="M130.777 32.2009H128.557V38.0304H127.683V32.2009H125.463V31.4419H130.777V32.2009Z" fill="#617171"/>
<path d="M134.159 32.2746L133.017 35.3194H135.283L134.159 32.2746ZM137.253 38.0304H136.277L135.543 36.0133H132.766L132.014 38.0304H131.084L133.685 31.4419H134.67L137.253 38.0304Z" fill="#617171"/>
<path d="M145.363 34.0887L148.261 38.0304H147.147L144.75 34.6805L143.654 35.7174V38.0304H142.781V31.4419H143.654V34.7085L147.008 31.4419H148.15L145.363 34.0887Z" fill="#617171"/>
<path d="M150.978 34.5974H152.659C153.505 34.5974 154.156 34.366 154.156 33.3947C154.156 32.3395 153.403 32.1914 152.539 32.1914H150.978V34.5974ZM152.827 31.4419C154.091 31.4419 155.028 31.9692 155.028 33.3389C155.028 34.8289 154.063 35.3285 152.771 35.3285H150.978V38.0304H150.105V31.4419H152.827Z" fill="#617171"/>
<path d="M158.893 32.2746L157.751 35.3194H160.017L158.893 32.2746ZM161.987 38.0304H161.012L160.278 36.0133H157.5L156.747 38.0304H155.818L158.419 31.4419H159.404L161.987 38.0304Z" fill="#617171"/>
<path d="M165.541 30.8775H164.704V29.943H165.541V30.8775ZM164.677 38.0304H163.803V31.4419H164.677V38.0304ZM163.785 30.8775H162.949V29.943H163.785V30.8775Z" fill="#617171"/>
<path d="M172.332 38.0304H171.459V34.949H167.967V38.0304H167.093V31.4419H167.967V34.1898H171.459V31.4419H172.332V38.0304Z" fill="#617171"/>
<path d="M174.736 31.4419H175.61V37.0219H175.628L178.87 31.4419H179.975V38.0304H179.103V32.4319H179.084L175.832 38.0304H174.736V31.4419Z" fill="#617171"/>
</g>
<defs>
<clipPath id="clip0_3901_4865">
<rect width="180" height="48" fill="white"/>
</clipPath>
</defs>
</svg>
